<svg width="141" height="28" viewBox="0 0 141 28" fill="none" xmlns="http://www.w3.org/2000/svg">
<path d="M28.0279 14C28.0279 21.7321 21.7538 28 14.0142 28C6.2745 28 0 21.7321 0 14C0 6.26793 6.2745 0 14.0142 0C21.7538 0 28.0279 6.26793 28.0279 14Z" fill="#292C6C"/>
<path d="M20.5366 10.2562L20.1802 9.15631C20.1078 8.93262 19.9311 8.75855 19.7063 8.68991L18.6 8.35003C18.4469 8.3033 18.4456 8.08747 18.5975 8.03826L19.6989 7.68226C19.9224 7.6099 20.0966 7.43334 20.1657 7.20882L20.5055 6.10359C20.5523 5.95102 20.7684 5.94937 20.8176 6.10153L21.174 7.20138C21.2464 7.42466 21.4231 7.59874 21.6479 7.66779L22.7542 8.00725C22.9073 8.05439 22.909 8.26981 22.7567 8.31902L21.6553 8.67502C21.4318 8.74738 21.2576 8.92435 21.1884 9.14887L20.8486 10.2537C20.8019 10.4067 20.5858 10.4083 20.5366 10.2562Z" fill="white"/>
<path d="M1.27344 13.7782C1.60662 13.1261 2.26552 12.6349 2.95009 12.3244C3.64169 12.0172 4.402 11.8286 5.14864 11.7674C6.65601 11.6314 8.12448 11.8832 9.46216 12.3186C10.1513 12.5237 10.768 12.8086 11.4049 13.0964C11.7145 13.2452 12.0055 13.4139 12.3051 13.5768L13.1329 14.056C14.0418 14.6126 14.923 15.1055 15.7507 15.4883C16.5806 15.8679 17.3305 16.1247 18.0374 16.2558C18.7444 16.3885 19.4629 16.3868 20.3465 16.1842C21.2231 15.9862 22.2094 15.559 23.2404 15.0112C24.2776 14.4629 25.3413 13.7906 26.5548 13.1336C26.4331 14.5067 26.0441 15.7943 25.4365 17.0376C24.814 18.2661 23.9481 19.4644 22.6858 20.4348C21.4474 21.4131 19.7468 22.0949 18.0155 22.1975C16.2834 22.3145 14.6357 21.9332 13.2339 21.3597C11.8267 20.778 10.6107 20.0135 9.53293 19.1695C9.23535 18.9363 9.07559 18.804 8.85581 18.6184L8.24202 18.0813C7.82855 17.7579 7.42791 17.3713 7.01858 17.0509C6.20198 16.3691 5.39408 15.686 4.50836 15.0939C4.06178 14.7929 3.60113 14.5138 3.0788 14.2665C2.8193 14.147 2.54365 14.0358 2.24772 13.9481C1.94476 13.8493 1.63683 13.7906 1.27344 13.7782Z" fill="#F6643C"/>
<path d="M1.27344 13.7784C1.44354 12.3656 2.10286 11.0404 3.15951 9.91239C4.21078 8.79517 5.85308 7.93389 7.67541 7.81977C8.57479 7.75981 9.48782 7.85988 10.3272 8.09225C11.1628 8.3238 11.9459 8.6612 12.6516 9.05855C13.0042 9.25826 13.3341 9.47658 13.6627 9.69697L14.5385 10.3594L15.9055 11.4369C16.7929 12.1427 17.6397 12.7956 18.4224 13.3348C19.2125 13.8748 19.8854 14.2692 20.5282 14.5004C21.1652 14.7526 21.9698 14.8171 23.0335 14.55C23.5616 14.4284 24.1125 14.2064 24.7002 13.9657C25.2846 13.7193 25.8913 13.4253 26.5548 13.1338C26.4749 13.8442 26.3305 14.5516 26.0561 15.2128C25.7924 15.883 25.4452 16.5388 24.9597 17.1503C24.7113 17.4481 24.4452 17.7474 24.1348 18.0236C23.8244 18.2932 23.4804 18.5491 23.1005 18.7737C22.3427 19.2124 21.4437 19.5328 20.5216 19.6469C19.5994 19.7627 18.6736 19.7048 17.8305 19.5262C16.9829 19.3525 16.2106 19.0726 15.5016 18.7493C14.0886 18.0927 12.9065 17.2674 11.8614 16.3937C11.3366 15.9575 10.8445 15.5018 10.3785 15.0391L9.82803 14.4871C9.66206 14.3271 9.49444 14.1663 9.32847 14.0191C8.65963 13.4282 8.03881 12.9767 7.35507 12.6951C6.6763 12.4003 5.80755 12.2791 4.7418 12.4784C3.68018 12.6757 2.51551 13.1342 1.27344 13.7784Z" fill="white"/>
<path d="M6.87461 21.0637C6.87461 21.4817 6.53522 21.8208 6.11679 21.8208C5.69835 21.8208 5.35938 21.4817 5.35938 21.0637C5.35938 20.6457 5.69835 20.3066 6.11679 20.3066C6.53522 20.3066 6.87461 20.6457 6.87461 21.0637Z" fill="white"/>
<path d="M6.87461 21.0637C6.87461 21.4817 6.53522 21.8208 6.11679 21.8208C5.69835 21.8208 5.35938 21.4817 5.35938 21.0637C5.35938 20.6457 5.69835 20.3066 6.11679 20.3066C6.53522 20.3066 6.87461 20.6457 6.87461 21.0637Z" fill="white"/>
<path d="M48.9228 14.382C48.4129 14.05 47.4875 13.6311 46.1465 13.1254C44.8051 12.6198 43.8743 12.1658 43.3532 11.7634C42.8325 11.3611 42.5718 10.8054 42.5718 10.0967C42.5718 9.388 42.8358 8.82898 43.3644 8.41922C43.8925 8.00946 44.5891 7.80479 45.4537 7.80479C46.3183 7.80479 47.0219 8.03923 47.5649 8.50771C48.1083 8.97659 48.3798 9.64271 48.3798 10.5065H50.4969C50.4969 9.0229 50.0052 7.86185 49.0226 7.02414C48.0396 6.18643 46.8559 5.76758 45.4702 5.76758C44.0849 5.76758 42.9079 6.15666 41.9402 6.93566C40.9721 7.71465 40.4883 8.76076 40.4883 10.0748C40.4883 11.0936 40.7391 11.9015 41.242 12.4999C41.5077 12.817 41.7626 13.0849 42.0064 13.3024C42.2506 13.5203 42.7638 13.8193 43.5473 14.1993C44.3304 14.5797 44.9955 14.836 45.5422 14.9687C46.5947 15.4203 47.4577 15.7883 48.0086 16.1868C48.5586 16.5854 48.8343 17.1337 48.8343 17.8313C48.8343 18.5288 48.5479 19.092 47.9751 19.5199C47.4026 19.9479 46.6121 20.162 45.6035 20.162C44.5949 20.162 43.7725 19.9094 43.1371 19.4037C42.5014 18.898 42.184 18.1765 42.184 17.2387H40.0781C40.0781 18.8112 40.6191 20.0368 41.7018 20.915C42.7841 21.7936 44.0903 22.2327 45.62 22.2327C47.1494 22.2327 48.4204 21.8304 49.4328 21.0258C50.4451 20.2212 50.9455 19.125 50.9347 17.737C50.9236 16.3493 50.2531 15.2309 48.9228 14.382Z" fill="white"/>
<path d="M62.9352 5.86621H52.5352V7.85222H56.6974V21.5995H58.7511V7.85222H62.9352V5.86621Z" fill="white"/>
<path d="M68.1564 5.86621L62.3984 21.5995H64.608C64.608 21.5995 65.1691 19.849 65.6243 19.1332C67.6023 16.0255 70.8909 15.6465 71.9479 15.675L74.0556 21.5995H76.2651L70.4965 5.86621H68.1564ZM66.9012 15.1545L69.332 8.3239L71.2365 13.6762C70.1504 13.7565 68.5673 14.0858 66.9012 15.1545Z" fill="white"/>
<path d="M103.512 5.86621H100.937L94.3564 12.9976V5.86621H92.2656V21.5995H94.3564V14.0511L101.168 21.5995H103.732L96.5464 13.5355L103.512 5.86621Z" fill="white"/>
<path d="M114.014 15.5761L107.938 5.86621H105.602V21.5995H108.677V11.8677L114.731 21.5995H117.068V5.86621H114.014V15.5761Z" fill="white"/>
<path d="M122.307 15.1043H127.863V12.208H122.307V8.83951H128.423V5.86621H119.199V21.5995H128.533V18.6374H122.307V15.1043Z" fill="white"/>
<path d="M129.867 5.86621V8.83985H133.642V21.5995H136.737V8.83985H140.534V5.86621H129.867Z" fill="white"/>
<path d="M86.4162 15.9355C86.0917 15.6418 85.7625 15.3865 85.4325 15.1618C86.4686 15.012 87.585 14.4576 88.3038 13.5572C88.9592 12.7367 89.2453 11.7797 89.2453 10.7486C89.2453 9.39519 88.7559 8.24328 87.7773 7.29245C86.7986 6.34162 85.6222 5.86621 84.2476 5.86621H78.3984V21.5995H80.5273V15.6662C81.6915 15.6927 83.4227 15.9802 85.0141 17.4201C86.54 18.8029 87.5943 20.5209 88.1373 21.5987H90.3984C89.9302 20.4079 88.5886 17.9026 86.4162 15.9355ZM84.2476 7.82993C85.0395 7.82993 85.7156 8.11377 86.2759 8.68021C86.8362 9.24707 87.116 9.93474 87.116 10.7428C87.116 11.5513 86.8447 12.2526 86.2759 12.822C85.2613 13.8374 82.9165 13.635 80.5903 13.6454C80.5692 13.645 80.548 13.6441 80.5273 13.6437V7.82993H84.2476Z" fill="white"/>
</svg>
