<svg width="20" height="18" viewBox="0 0 20 18" fill="none" xmlns="http://www.w3.org/2000/svg">
    <path fill-rule="evenodd" clip-rule="evenodd" d="M0.375 15.1875V2.81113C0.375 1.67263 1.29763 0.75 2.43613 0.75C5.42881 0.75 12.5087 0.75 15.5014 0.75C16.6399 0.75 17.5625 1.67263 17.5625 2.81113V6.9375C18.107 6.94506 18.6274 7.16438 19.0131 7.54938C19.405 7.94125 19.625 8.47269 19.625 9.0275V11.7225C19.625 12.2773 19.405 12.8088 19.0131 13.2006C18.6274 13.5856 18.107 13.8049 17.5625 13.8125V15.1875C17.5625 15.7348 17.3453 16.2593 16.9582 16.6457C16.5718 17.0328 16.0473 17.25 15.5 17.25C12.5066 17.25 5.43088 17.25 2.4375 17.25C1.89025 17.25 1.36569 17.0328 0.979312 16.6457C0.59225 16.2593 0.375 15.7348 0.375 15.1875V15.1875ZM16.1875 4.75812C15.973 4.83375 15.742 4.875 15.5014 4.875C12.5087 4.875 5.42881 4.875 2.43613 4.875C2.1955 4.875 1.9645 4.83375 1.75 4.75812V15.1875C1.75 15.3697 1.82219 15.545 1.95144 15.6736C2.08 15.8028 2.25531 15.875 2.4375 15.875C5.43088 15.875 12.5066 15.875 15.5 15.875C15.6822 15.875 15.8575 15.8028 15.9861 15.6736C16.1153 15.545 16.1875 15.3697 16.1875 15.1875V13.8125H12.09C11.5352 13.8125 11.0037 13.5925 10.6119 13.2006C10.22 12.8088 10 12.2773 10 11.7225V9.0275C10 8.47269 10.22 7.94125 10.6119 7.54938C11.0037 7.1575 11.5352 6.9375 12.09 6.9375H16.1875V4.75812V4.75812ZM18.25 9.0275V11.7225C18.25 11.9122 18.1744 12.0944 18.041 12.2285C17.9069 12.3619 17.7247 12.4375 17.535 12.4375H12.09C11.9003 12.4375 11.7181 12.3619 11.584 12.2285C11.4506 12.0944 11.375 11.9122 11.375 11.7225V9.0275C11.375 8.83775 11.4506 8.65556 11.584 8.5215C11.7181 8.38812 11.9003 8.3125 12.09 8.3125H17.535C17.7247 8.3125 17.9069 8.38812 18.041 8.5215C18.1744 8.65556 18.25 8.83775 18.25 9.0275ZM16.1875 2.81113C16.1875 2.43231 15.8802 2.125 15.5014 2.125C12.5087 2.125 5.42881 2.125 2.43613 2.125C2.05731 2.125 1.75 2.43231 1.75 2.81113C1.75 2.81181 1.75 2.81319 1.75 2.81387C1.75 3.19269 2.05731 3.5 2.43613 3.5C5.42881 3.5 12.5087 3.5 15.5014 3.5C15.8802 3.5 16.1875 3.19269 16.1875 2.81387V2.81113Z" fill="white"/>
</svg>
