<svg width="20" height="17" viewBox="0 0 20 17" fill="none" xmlns="http://www.w3.org/2000/svg">
    <path d="M17.77 4.05771H16.6342L16.0364 2.05013H16.0366C15.9036 1.6052 15.5826 1.22692 15.1447 0.999344C14.7068 0.771741 14.1879 0.713194 13.7026 0.837035L2.01967 4.07241C1.55837 4.12134 1.13244 4.32313 0.822477 4.64C0.512366 4.95669 0.33964 5.3665 0.33667 5.79203V14.8344C0.337222 15.2941 0.536843 15.7348 0.891683 16.0599C1.24654 16.3852 1.72771 16.568 2.22955 16.5686H17.7697C18.2716 16.5679 18.7528 16.3852 19.1076 16.0599C19.4625 15.7348 19.6621 15.2941 19.6626 14.8344C19.6652 12.2404 19.6608 8.37623 19.6626 5.79203C19.6621 5.33224 19.4624 4.89138 19.1076 4.56627C18.7527 4.24115 18.2716 4.05824 17.7697 4.05776L17.77 4.05771ZM13.9316 1.56318V1.56301C14.2041 1.49485 14.4952 1.52859 14.7405 1.65699C14.986 1.78538 15.1657 1.9978 15.2401 2.24751L15.779 4.05771H4.92434L13.9316 1.56318ZM17.77 15.8128H2.22984C1.9468 15.8125 1.67534 15.7094 1.47517 15.5258C1.27482 15.3424 1.1623 15.0937 1.16193 14.8344V5.79204C1.1623 5.53255 1.27482 5.28384 1.47517 5.10044C1.67535 4.91704 1.94679 4.81379 2.22984 4.81362H17.77C18.0531 4.81379 18.3245 4.91704 18.5247 5.10044C18.725 5.28384 18.8376 5.53254 18.8379 5.79204V7.90069H15.9002C15.2013 7.89985 14.5308 8.15378 14.0362 8.60629C13.5417 9.05881 13.2638 9.67275 13.2638 10.3131C13.2638 10.9534 13.5417 11.5675 14.0362 12.02C14.5308 12.4726 15.2013 12.7263 15.9002 12.7255H18.8377V14.8341L18.8379 14.8343C18.8375 15.0936 18.725 15.3423 18.5247 15.5257C18.3245 15.7093 18.0531 15.8124 17.77 15.8127L17.77 15.8128ZM18.8379 11.9698L15.9001 11.9697C15.4202 11.9703 14.9597 11.7962 14.6199 11.4854C14.2804 11.1747 14.0894 10.753 14.0894 10.3131C14.0894 9.87345 14.2804 9.45167 14.6199 9.14103C14.9597 8.83025 15.4203 8.65598 15.9001 8.65663H18.8377L18.8379 11.9698ZM15.4125 10.317H15.4123C15.4162 10.6357 15.6042 10.9288 15.9062 11.0872C16.2082 11.2457 16.5791 11.2457 16.8811 11.0872C17.1831 10.9288 17.3712 10.6357 17.3751 10.317C17.3712 9.99815 17.1832 9.70508 16.8811 9.54665C16.5791 9.38839 16.2083 9.38839 15.9062 9.54665C15.6042 9.70508 15.4162 9.99814 15.4123 10.317H15.4125ZM16.3936 10.1738C16.4785 10.1755 16.5465 10.2391 16.5465 10.317C16.5465 10.3948 16.4785 10.4584 16.3936 10.4601C16.3087 10.4584 16.2408 10.3948 16.2408 10.317C16.2408 10.2391 16.3087 10.1755 16.3936 10.1738Z" fill="white"/>
</svg>
