<svg width="24" height="18" viewBox="0 0 24 18" fill="none" xmlns="http://www.w3.org/2000/svg">
<path d="M16.6808 16.4714C16.6808 16.6704 16.6018 16.8611 16.4611 17.0018C16.3205 17.1424 16.1297 17.2214 15.9308 17.2214H9.03078C7.63888 17.2199 6.30445 16.6662 5.32023 15.682C4.336 14.6978 3.78237 13.3633 3.78078 11.9714V7.64994L2.03703 9.39369C1.8964 9.53452 1.70559 9.61372 1.50656 9.61386C1.30754 9.614 1.11661 9.53507 0.975782 9.39444C0.834953 9.25381 0.755756 9.063 0.755615 8.86397C0.755475 8.66495 0.834401 8.47402 0.975032 8.33319L3.99753 5.31144C4.06719 5.24171 4.1499 5.18639 4.24095 5.14865C4.332 5.1109 4.4296 5.09148 4.52816 5.09148C4.62672 5.09148 4.72431 5.1109 4.81536 5.14865C4.90641 5.18639 4.98913 5.24171 5.05878 5.31144L8.07978 8.33319C8.15142 8.40238 8.20855 8.48514 8.24786 8.57664C8.28717 8.66814 8.30786 8.76656 8.30872 8.86614C8.30959 8.96573 8.29061 9.06449 8.2529 9.15666C8.21519 9.24883 8.1595 9.33257 8.08908 9.40299C8.01866 9.47341 7.93492 9.5291 7.84275 9.56681C7.75058 9.60452 7.65182 9.6235 7.55223 9.62263C7.45265 9.62177 7.35423 9.60108 7.26273 9.56177C7.17123 9.52246 7.08847 9.46533 7.01928 9.39369L5.27853 7.64994V11.9692C5.27972 12.9634 5.67519 13.9165 6.3782 14.6195C7.0812 15.3225 8.03434 15.718 9.02853 15.7192H15.9285C16.0274 15.7189 16.1254 15.7382 16.2168 15.7759C16.3082 15.8135 16.3912 15.8689 16.4611 15.9389C16.531 16.0088 16.5864 16.0918 16.6241 16.1832C16.6618 16.2746 16.6811 16.3726 16.6808 16.4714ZM23.025 8.60619C22.8844 8.46559 22.6937 8.3866 22.4948 8.3866C22.2959 8.3866 22.1052 8.46559 21.9645 8.60619L20.2215 10.3499V6.02844C20.2199 4.63654 19.6663 3.30211 18.6821 2.31789C17.6979 1.33366 16.3634 0.78003 14.9715 0.778442H8.07153C7.87262 0.778442 7.68186 0.85746 7.5412 0.998112C7.40055 1.13876 7.32153 1.32953 7.32153 1.52844C7.32153 1.72735 7.40055 1.91812 7.5412 2.05877C7.68186 2.19942 7.87262 2.27844 8.07153 2.27844H14.9715C15.9657 2.27963 16.9189 2.6751 17.6219 3.37811C18.3249 4.08111 18.7203 5.03425 18.7215 6.02844V10.3499L16.9808 8.60844C16.9116 8.53681 16.8288 8.47967 16.7373 8.44037C16.6458 8.40106 16.5474 8.38037 16.4478 8.37951C16.3482 8.37864 16.2495 8.39762 16.1573 8.43533C16.0651 8.47304 15.9814 8.52873 15.911 8.59915C15.8406 8.66957 15.7849 8.75331 15.7472 8.84548C15.7095 8.93765 15.6905 9.03641 15.6913 9.13599C15.6922 9.23558 15.7129 9.33399 15.7522 9.4255C15.7915 9.517 15.8486 9.59976 15.9203 9.66894L18.9413 12.6907C19.0109 12.7604 19.0937 12.8157 19.1847 12.8535C19.2757 12.8912 19.3733 12.9107 19.4719 12.9107C19.5705 12.9107 19.6681 12.8912 19.7591 12.8535C19.8502 12.8157 19.9329 12.7604 20.0025 12.6907L23.025 9.66669C23.1656 9.52605 23.2446 9.33532 23.2446 9.13644C23.2446 8.93757 23.1656 8.74684 23.025 8.60619Z" fill="black"/>
</svg>
