<svg width="49" height="48" viewBox="0 0 49 48" fill="none" xmlns="http://www.w3.org/2000/svg">
    <path d="M37.379 7.98676L13.4971 18.4456C12.9813 18.6699 12.5294 19.0197 12.1831 19.4629C11.9186 19.7988 11.7518 20.2007 11.7006 20.6237C11.6492 21.047 11.7158 21.4754 11.8923 21.8619C12.0624 22.2765 12.3413 22.6372 12.6994 22.9056C13.0575 23.1747 13.482 23.3416 13.9281 23.3896L24.3224 24.3096L25.1239 34.5854C25.1599 35.0346 25.3169 35.4653 25.5778 35.8315C25.839 36.1975 26.1942 36.486 26.6067 36.666C26.9932 36.8424 27.4216 36.9091 27.8449 36.8576C28.268 36.8064 28.6698 36.6396 29.0057 36.3752L29.2898 36.0912L29.2895 36.0914C29.5884 35.7878 29.8319 35.434 30.0083 35.0464L40.5264 11.1343C40.7849 10.5413 40.794 9.87031 40.5521 9.27329C40.3101 8.67584 39.8372 8.20301 39.2398 7.96101C38.6428 7.71901 37.9719 7.72818 37.3787 7.98671L37.379 7.98676ZM38.593 10.3067L28.1342 34.1886C28.0214 34.3615 27.8736 34.5092 27.7008 34.622C27.6251 34.6724 27.5284 34.6784 27.4475 34.6376C27.3063 34.5924 27.196 34.4821 27.1505 34.3406L26.528 24.035C26.4889 23.5034 26.2607 23.0046 25.8849 22.6289C25.5092 22.2532 25.0105 22.0249 24.4788 21.9858L14.1585 21.259C14.0174 21.2137 13.9071 21.1034 13.8615 20.962C13.821 20.8813 13.827 20.7847 13.8774 20.7089L13.9819 20.6044C14.0665 20.4722 14.1785 20.3602 14.3108 20.2756L38.2374 9.77204C38.3485 9.72415 38.477 9.74841 38.5622 9.8336C38.6471 9.91853 38.6714 10.047 38.6235 10.1581L38.593 10.3067Z" fill="#F6643C"/>
    <path d="M13.1754 35.338C13.3722 35.5348 13.64 35.6451 13.9192 35.644C14.1987 35.6431 14.4669 35.5313 14.6652 35.333L22.137 27.8612C22.5495 27.4487 22.5519 26.7819 22.1417 26.3718C21.7316 25.9616 21.0648 25.964 20.6523 26.3765L13.1805 33.8483C12.7677 34.2611 12.7653 34.9279 13.1755 35.338L13.1754 35.338Z" fill="#F6643C"/>
    <path d="M6.47426 34.6147L14.6932 26.3957C15.1057 25.9832 15.1079 25.3161 14.698 24.9063C14.2878 24.4961 13.621 24.4985 13.2085 24.911L4.98957 33.13C4.57678 33.5427 4.5744 34.2096 4.98454 34.6197C5.39443 35.0296 6.06149 35.0274 6.47426 34.6147Z" fill="#F6643C"/>
    <path d="M22.1177 33.8199L13.8987 42.0388C13.486 42.4516 13.4838 43.1187 13.8937 43.5285C14.3039 43.9387 14.9707 43.9363 15.3834 43.5235L23.6024 35.3046C24.0149 34.892 24.0173 34.2252 23.6072 33.8151C23.1973 33.4052 22.5302 33.4074 22.1177 33.8199Z" fill="#F6643C"/>
</svg>
