<svg width="16" height="16" viewBox="0 0 18 19" fill="none" xmlns="http://www.w3.org/2000/svg">
<path d="M6.04931 0.13977L0.169764 4.9868C0.00393485 5.12352 -0.0455534 5.32826 0.0441621 5.50698C0.133878 5.68523 0.344854 5.80144 0.578982 5.80144L3.33672 5.80144L3.33672 9.5C3.33672 9.76343 3.59603 9.97723 3.91553 9.97723C4.23504 9.97723 4.49434 9.76343 4.49434 9.5L4.49434 5.3242C4.49434 5.06077 4.23503 4.84697 3.91553 4.84697L1.97652 4.84697L6.45824 1.15222L10.9397 4.84697L9.00038 4.84697C8.68087 4.84697 8.42157 5.06077 8.42157 5.3242L8.42157 13.2019C8.14374 13.1986 7.78835 13.1986 7.33167 13.1986L5.66325 13.1986C5.42912 13.1986 5.21814 13.3148 5.12843 13.493C5.03842 13.672 5.08791 13.8765 5.25403 14.0132L11.1327 18.8602C11.3587 19.0466 11.7251 19.0466 11.9511 18.8602L17.8304 14.0134C17.9413 13.922 18 13.8001 18 13.676C18 13.6145 17.9855 13.5524 17.956 13.4933C17.8663 13.315 17.6553 13.1988 17.4212 13.1988L14.6626 13.1988L14.6626 9.5C14.6626 9.23657 14.4033 9.02277 14.0838 9.02277C13.7643 9.02277 13.505 9.23657 13.505 9.5L13.505 13.6763C13.505 13.9397 13.7643 14.1535 14.0838 14.1535C14.0861 14.1535 14.0884 14.1535 14.0907 14.1535C14.1558 14.1533 15.1413 14.153 16.0237 14.153L11.5419 17.8478L7.06078 14.153C7.92582 14.153 8.8904 14.1533 8.98851 14.1535C9.02961 14.1542 9.07099 14.1511 9.11238 14.1444C9.38384 14.1003 9.57919 13.9042 9.57919 13.6763L9.57918 5.80144L12.3369 5.80144C12.5711 5.80144 12.782 5.68523 12.8717 5.50698C12.9612 5.32826 12.912 5.12376 12.7461 4.9868L6.86775 0.13977C6.64173 -0.0465911 6.27534 -0.0465911 6.04931 0.13977Z" fill="#EAF2FF"/>
</svg>
