<svg width="20" height="20" viewBox="0 0 20 20" fill="none" xmlns="http://www.w3.org/2000/svg">
<path d="M19.9222 9.96097C19.9222 15.4623 15.4626 19.9219 9.96126 19.9219C4.45991 19.9219 0 15.4623 0 9.96097C0 4.45962 4.45991 0 9.96126 0C15.4626 0 19.9222 4.45962 19.9222 9.96097Z" fill="#29296E"/>
<path d="M14.5964 7.29758L14.3431 6.51503C14.2916 6.35588 14.166 6.23202 14.0063 6.18319L13.2199 5.94136C13.111 5.90812 13.1102 5.75455 13.2181 5.71954L14.001 5.46625C14.1598 5.41476 14.2837 5.28915 14.3328 5.1294L14.5743 4.34303C14.6076 4.23448 14.7611 4.2333 14.7962 4.34156L15.0495 5.12411C15.1009 5.28297 15.2266 5.40682 15.3863 5.45595L16.1727 5.69748C16.2815 5.73102 16.2827 5.88429 16.1744 5.9193L15.3916 6.1726C15.2327 6.22408 15.1089 6.34999 15.0598 6.50974L14.8182 7.29581C14.785 7.40466 14.6314 7.40584 14.5964 7.29758Z" fill="#FAFAFA"/>
<path d="M0.905762 9.80314C1.14258 9.3392 1.61093 8.98971 2.09752 8.76877C2.58911 8.55019 3.12954 8.41604 3.66026 8.3725C4.7317 8.27571 5.77548 8.45487 6.7263 8.76465C7.21613 8.91057 7.65447 9.11327 8.10723 9.31802C8.32728 9.42393 8.5341 9.54396 8.74709 9.65987L9.33547 10.0008C9.98151 10.3968 10.6078 10.7475 11.1962 11.0199C11.7861 11.29 12.3191 11.4727 12.8216 11.5659C13.3241 11.6604 13.8348 11.6592 14.4629 11.515C15.086 11.3741 15.7871 11.0702 16.5199 10.6804C17.2571 10.2903 18.0132 9.81197 18.8757 9.3445C18.7893 10.3215 18.5127 11.2376 18.0808 12.1222C17.6384 12.9963 17.0229 13.8488 16.1257 14.5393C15.2454 15.2354 14.0366 15.7205 12.806 15.7934C11.5748 15.8767 10.4037 15.6054 9.40725 15.1974C8.40701 14.7835 7.54268 14.2395 6.77661 13.6391C6.56509 13.4732 6.45153 13.379 6.29532 13.2469L5.85903 12.8648C5.56514 12.6347 5.28036 12.3596 4.98941 12.1317C4.40897 11.6465 3.83471 11.1605 3.20515 10.7393C2.88772 10.5251 2.56028 10.3265 2.18902 10.1506C2.00456 10.0656 1.80863 9.98642 1.59828 9.92405C1.38294 9.85374 1.16406 9.81197 0.905762 9.80314Z" fill="#FF4F0A"/>
<path d="M0.905762 9.8032C1.02667 8.79795 1.49532 7.85508 2.24638 7.05253C2.99363 6.25763 4.16097 5.64483 5.45629 5.56363C6.09556 5.52098 6.74454 5.59217 7.34116 5.7575C7.93513 5.92225 8.49174 6.16231 8.99333 6.44503C9.24398 6.58712 9.47845 6.74245 9.71203 6.89925L10.3345 7.37055L11.3062 8.1372C11.937 8.63939 12.5389 9.10391 13.0952 9.48754C13.6568 9.87175 14.1352 10.1524 14.5921 10.3169C15.0448 10.4963 15.6167 10.5422 16.3728 10.3522C16.7482 10.2657 17.1397 10.1077 17.5575 9.93647C17.9729 9.76113 18.4042 9.55196 18.8757 9.34456C18.819 9.84998 18.7163 10.3533 18.5212 10.8237C18.3339 11.3006 18.087 11.7672 17.7419 12.2023C17.5654 12.4141 17.3763 12.6271 17.1556 12.8236C16.935 13.0155 16.6905 13.1976 16.4204 13.3573C15.8818 13.6694 15.2428 13.8974 14.5873 13.9786C13.9319 14.061 13.2738 14.0198 12.6745 13.8927C12.072 13.7692 11.5231 13.57 11.0191 13.3399C10.0148 12.8728 9.17455 12.2856 8.43172 11.6639C8.05869 11.3536 7.7089 11.0294 7.37764 10.7002L6.98637 10.3074C6.8684 10.1936 6.74925 10.0792 6.63128 9.97442C6.15587 9.55402 5.71459 9.23277 5.22858 9.03242C4.74611 8.82267 4.12861 8.73647 3.37107 8.87827C2.61647 9.0186 1.78862 9.34485 0.905762 9.8032Z" fill="#FAFAFA"/>
<path d="M4.8866 14.9869C4.8866 15.2843 4.64536 15.5256 4.34794 15.5256C4.05051 15.5256 3.80957 15.2843 3.80957 14.9869C3.80957 14.6895 4.05051 14.4482 4.34794 14.4482C4.64536 14.4482 4.8866 14.6895 4.8866 14.9869Z" fill="#FAFAFA"/>
<path d="M4.8866 14.9869C4.8866 15.2843 4.64536 15.5256 4.34794 15.5256C4.05051 15.5256 3.80957 15.2843 3.80957 14.9869C3.80957 14.6895 4.05051 14.4482 4.34794 14.4482C4.64536 14.4482 4.8866 14.6895 4.8866 14.9869Z" fill="#FAFAFA"/>
</svg>
