<svg width="381" height="381" viewBox="0 0 381 381" fill="none" xmlns="http://www.w3.org/2000/svg">
    <path d="M60.5195 329.211C94.4495 360.831 139.95 380.221 190 380.221C240.05 380.221 285.54 360.841 319.48 329.211C289.57 284.731 243.63 251.891 190 239.001C136.37 251.891 90.4295 284.731 60.5195 329.211Z" fill="#0C0C4F"/>
    <path d="M139.33 223.471C156.75 223.471 173.69 225.511 190 229.261C206.3 225.521 223.25 223.471 240.67 223.471C287.04 223.471 330.18 237.501 366.12 261.521C375.04 239.501 380 215.451 380 190.221C380 85.2907 294.93 0.220703 190 0.220703C85.07 0.220703 0 85.2907 0 190.221C0 215.441 4.96 239.501 13.88 261.521C49.82 237.511 92.96 223.471 139.33 223.471Z" fill="#0C0C4F"/>
    <path d="M17.7295 270.361C52.4395 246.771 94.2995 232.971 139.34 232.971C149.49 232.971 159.46 233.731 169.25 235.081C121.84 250.891 81.3495 281.981 53.6595 322.471C55.8995 324.771 58.1795 327.031 60.5295 329.221C90.4395 284.741 136.38 251.901 190.01 239.011C243.64 251.901 289.579 284.741 319.49 329.221C321.84 327.031 324.129 324.781 326.359 322.471C298.659 281.981 258.18 250.891 210.77 235.081C220.55 233.721 230.53 232.971 240.68 232.971C285.71 232.971 327.58 246.771 362.29 270.361C363.65 267.451 364.92 264.501 366.13 261.521C330.19 237.511 287.05 223.471 240.68 223.471C223.26 223.471 206.32 225.511 190.01 229.261C173.71 225.521 156.76 223.471 139.34 223.471C92.9695 223.471 49.8295 237.501 13.8895 261.521C15.0995 264.511 16.3795 267.461 17.7295 270.361Z" fill="white"/>
    <path d="M210.76 235.081C258.17 250.891 298.66 281.981 326.35 322.471C341.05 307.321 353.24 289.731 362.27 270.361C327.56 246.771 285.7 232.971 240.66 232.971C230.51 232.971 220.54 233.731 210.75 235.081H210.76Z" fill="url(#paint0_linear_0_28)"/>
    <path d="M17.7288 270.361C26.7587 289.731 38.9487 307.321 53.6488 322.471C81.3488 281.981 121.829 250.891 169.239 235.081C159.459 233.721 149.479 232.971 139.329 232.971C94.2988 232.971 52.4287 246.771 17.7188 270.361H17.7288Z" fill="url(#paint1_linear_0_28)"/>
    <path d="M238.739 155.731L250.109 152.571C251.909 152.071 251.909 149.521 250.109 149.021L238.739 145.861C235.009 144.821 232.089 141.911 231.059 138.181L227.899 126.811C227.399 125.011 224.849 125.011 224.349 126.811L221.189 138.181C220.149 141.911 217.239 144.831 213.509 145.861L202.139 149.021C200.339 149.521 200.339 152.071 202.139 152.571L213.509 155.731C217.239 156.771 220.159 159.681 221.189 163.411L224.349 174.781C224.849 176.581 227.399 176.581 227.899 174.781L231.059 163.411C232.099 159.681 235.009 156.761 238.739 155.731Z" fill="white"/>
    <path d="M181.298 94.7009L198.348 89.9609C201.048 89.2109 201.048 85.3909 198.348 84.6409L181.298 79.9009C175.698 78.3409 171.328 73.9709 169.768 68.3709L165.028 51.3209C164.278 48.6209 160.458 48.6209 159.708 51.3209L154.968 68.3709C153.408 73.9709 149.038 78.3409 143.438 79.9009L126.388 84.6409C123.688 85.3909 123.688 89.2109 126.388 89.9609L143.438 94.7009C149.038 96.2609 153.408 100.631 154.968 106.231L159.708 123.281C160.458 125.981 164.278 125.981 165.028 123.281L169.768 106.231C171.328 100.631 175.698 96.2609 181.298 94.7009Z" fill="white"/>
    <path fill-rule="evenodd" clip-rule="evenodd" d="M380.445 190.22C380.445 85.1633 295.282 0 190.226 0C85.168 0 0 85.1633 0 190.22C0 295.275 85.1679 380.441 190.226 380.441C295.282 380.441 380.445 295.278 380.445 190.22ZM190.226 9.63153C289.963 9.63153 370.814 90.4826 370.814 190.22C370.814 289.958 289.963 370.809 190.226 370.809C90.487 370.809 9.63153 289.956 9.63153 190.22C9.63153 90.483 90.487 9.63153 190.226 9.63153Z" fill="url(#paint2_linear_0_28)"/>
    <defs>
        <linearGradient id="paint0_linear_0_28" x1="33.6138" y1="223.001" x2="177.818" y2="412.322" gradientUnits="userSpaceOnUse">
            <stop stop-color="#E5778E"/>
            <stop offset="1" stop-color="#E076B0"/>
        </linearGradient>
        <linearGradient id="paint1_linear_0_28" x1="51.8282" y1="297.791" x2="196.032" y2="108.469" gradientUnits="userSpaceOnUse">
            <stop stop-color="#EB796B"/>
            <stop offset="1" stop-color="#E5778E"/>
        </linearGradient>
        <linearGradient id="paint2_linear_0_28" x1="20.467" y1="97.5192" x2="365.737" y2="161.585" gradientUnits="userSpaceOnUse">
            <stop stop-color="#EC796B"/>
            <stop offset="1" stop-color="#E175B1"/>
        </linearGradient>
    </defs>
</svg>
