<?xml version="1.0" standalone="no"?>
<!DOCTYPE svg PUBLIC "-//W3C//DTD SVG 20010904//EN"
 "http://www.w3.org/TR/2001/REC-SVG-20010904/DTD/svg10.dtd">
<svg version="1.0" xmlns="http://www.w3.org/2000/svg"
 width="250.000000pt" height="250.000000pt" viewBox="0 0 250.000000 250.000000"
 preserveAspectRatio="xMidYMid meet">

<g transform="translate(0.000000,250.000000) scale(0.100000,-0.100000)"
fill="#5552fd" stroke="none">
<path d="M866 2414 c-3 -9 -6 -56 -6 -105 l0 -89 -100 0 -100 0 0 -90 0 -90
100 0 100 0 0 90 0 90 390 0 390 0 0 -90 0 -90 95 0 95 0 0 90 0 90 -95 0 -95
0 0 93 c0 59 -4 97 -12 105 -9 9 -108 12 -384 12 -330 0 -373 -2 -378 -16z"/>
<path d="M470 1930 l0 -90 83 0 84 0 6 -142 c9 -184 9 -766 0 -931 l-6 -127
-84 0 -83 0 0 -90 0 -90 90 0 90 0 0 85 0 85 100 0 100 0 2 402 3 403 93 3 92
3 0 -106 0 -105 210 0 210 0 0 105 0 105 90 0 90 0 2 -402 3 -403 103 -3 102
-3 0 -84 0 -85 90 0 90 0 0 90 0 90 -90 0 -90 0 0 600 0 600 90 0 90 0 0 90 0
90 -90 0 -90 0 0 -90 0 -90 -105 0 -105 0 0 -100 0 -100 -95 0 -95 0 0 -95 0
-95 -200 0 -200 0 0 95 0 94 -97 3 -98 3 -3 98 -3 97 -99 0 -100 0 0 90 0 90
-90 0 -90 0 0 -90z"/>
<path d="M270 1730 l0 -90 74 0 c108 0 106 -2 106 96 l0 84 -90 0 -90 0 0 -90z"/>
<path d="M2050 1736 c0 -98 -2 -96 106 -96 l74 0 0 90 0 90 -90 0 -90 0 0 -84z"/>
<path d="M65 1608 c-3 -13 -4 -187 -3 -388 l3 -365 93 -3 92 -3 0 391 0 390
-90 0 c-85 0 -90 -1 -95 -22z"/>
<path d="M2240 1240 l0 -390 84 0 c46 0 91 3 100 6 14 5 16 48 16 378 0 276
-3 375 -12 384 -8 8 -45 12 -100 12 l-88 0 0 -390z"/>
<path d="M270 740 l0 -90 90 0 90 0 0 78 c0 47 -5 83 -12 90 -7 7 -43 12 -90
12 l-78 0 0 -90z"/>
<path d="M2057 823 c-4 -3 -7 -44 -7 -90 l0 -83 90 0 90 0 0 90 0 90 -83 0
c-46 0 -87 -3 -90 -7z"/>
<path d="M660 350 l0 -90 100 0 99 0 3 -103 3 -102 365 -3 c201 -1 375 0 388
3 21 5 22 10 22 105 l0 100 95 0 95 0 0 90 0 90 -95 0 -95 0 0 -90 0 -90 -390
0 -390 0 0 90 0 90 -100 0 -100 0 0 -90z"/>
</g>
</svg>
