<svg width="16" height="14" viewBox="0 0 16 14" fill="none" xmlns="http://www.w3.org/2000/svg">
<path d="M13.5007 9.66634V8.49967C13.5007 7.85534 12.9783 7.33301 12.334 7.33301C11.6897 7.33301 11.1673 7.85534 11.1673 8.49967V9.66634M14.6673 4.66634H1.33398M14.6673 5.33301V3.46634C14.6673 2.71961 14.6673 2.34624 14.522 2.06102C14.3942 1.81014 14.1902 1.60616 13.9393 1.47833C13.6541 1.33301 13.2807 1.33301 12.534 1.33301H3.46732C2.72058 1.33301 2.34721 1.33301 2.062 1.47833C1.81111 1.60616 1.60714 1.81014 1.47931 2.06102C1.33398 2.34624 1.33398 2.7196 1.33398 3.46634V8.53301C1.33398 9.27974 1.33398 9.65311 1.47931 9.93833C1.60714 10.1892 1.81111 10.3932 2.062 10.521C2.34721 10.6663 2.72058 10.6663 3.46732 10.6663H7.33398M11.0673 12.333H13.6007C13.974 12.333 14.1607 12.333 14.3033 12.2603C14.4288 12.1964 14.5307 12.0944 14.5947 11.969C14.6673 11.8264 14.6673 11.6397 14.6673 11.2663V10.733C14.6673 10.3596 14.6673 10.173 14.5947 10.0303C14.5307 9.90491 14.4288 9.80292 14.3033 9.739C14.1607 9.66634 13.974 9.66634 13.6007 9.66634H11.0673C10.6939 9.66634 10.5073 9.66634 10.3647 9.739C10.2392 9.80292 10.1372 9.90491 10.0733 10.0303C10.0007 10.173 10.0007 10.3596 10.0007 10.733V11.2663C10.0007 11.6397 10.0007 11.8264 10.0733 11.969C10.1372 12.0944 10.2392 12.1964 10.3647 12.2603C10.5073 12.333 10.6939 12.333 11.0673 12.333Z" stroke="black" stroke-width="1.41667" stroke-linecap="round" stroke-linejoin="round"/>
</svg>
