<svg width="24" height="24" viewBox="0 0 24 24" fill="none" xmlns="http://www.w3.org/2000/svg">
<path d="M15.75 20.625H13.875C13.7755 20.625 13.6802 20.6645 13.6098 20.7348C13.5395 20.8052 13.5 20.9005 13.5 21V22.875H14.25V21.9037L15.4838 23.1412L16.0162 22.6088L14.7787 21.375H15.75V20.625Z" fill="black"/>
<path d="M23.4338 9.42378L20.0588 7.54878C20.0018 7.51586 19.9371 7.49854 19.8713 7.49854C19.8054 7.49854 19.7408 7.51586 19.6838 7.54878L17.5613 8.72628L15.1013 7.32753L15.5513 7.07628C15.6106 7.0447 15.6603 6.99775 15.6953 6.94036C15.7303 6.88296 15.7492 6.81723 15.75 6.75003V3.00003C15.7499 2.93358 15.7321 2.86835 15.6985 2.81103C15.6649 2.7537 15.6167 2.70634 15.5588 2.67378L12.1838 0.798776C12.1268 0.765863 12.0621 0.748535 11.9963 0.748535C11.9304 0.748535 11.8658 0.765863 11.8088 0.798776L8.43377 2.67378C8.37724 2.70729 8.33051 2.75507 8.29826 2.81233C8.26601 2.86958 8.24937 2.93431 8.25002 3.00003V3.00003V6.75003C8.25013 6.81647 8.2679 6.8817 8.30151 6.93902C8.33511 6.99635 8.38334 7.04372 8.44127 7.07628L8.89127 7.32753L6.43127 8.72628L4.30877 7.54878C4.25176 7.51586 4.18709 7.49854 4.12127 7.49854C4.05544 7.49854 3.99077 7.51586 3.93377 7.54878L0.558768 9.42378C0.502239 9.45729 0.455509 9.50507 0.42326 9.56233C0.39101 9.61959 0.374374 9.68431 0.375018 9.75003V9.75003V13.5C0.375133 13.5665 0.392901 13.6317 0.426506 13.689C0.46011 13.7464 0.508343 13.7937 0.566268 13.8263L3.94127 15.7013C3.99828 15.7342 4.06294 15.7515 4.12877 15.7515C4.19459 15.7515 4.25926 15.7342 4.31627 15.7013L5.10377 15.2663L8.25002 17.055V22.5C8.25002 22.5995 8.28953 22.6949 8.35985 22.7652C8.43018 22.8355 8.52556 22.875 8.62502 22.875H12.75V22.125H9.00002V16.125H15V19.875H15.75V17.055L18.9038 15.2663L19.6913 15.7013C19.7483 15.7342 19.8129 15.7515 19.8788 15.7515C19.9446 15.7515 20.0093 15.7342 20.0663 15.7013L23.4413 13.8263C23.4978 13.7928 23.5445 13.745 23.5768 13.6877C23.609 13.6305 23.6257 13.5657 23.625 13.5V9.75003C23.6249 9.68358 23.6071 9.61835 23.5735 9.56103C23.5399 9.5037 23.4917 9.45634 23.4338 9.42378V9.42378ZM12 1.55253L14.6025 3.00003L12 4.44753L9.39752 3.00003L12 1.55253ZM15 3.63753V6.52878L12.375 7.98753V5.09628L15 3.63753ZM9.00002 3.63753L11.625 5.09628V7.98753L9.00002 6.52878V3.63753ZM3.75002 14.7375L1.12502 13.2788V10.3875L3.75002 11.8463V14.7375ZM4.12502 11.1975L1.52252 9.75003L4.12502 8.30253L6.72752 9.75003L4.12502 11.1975ZM4.50002 14.7375V11.8463L7.12502 10.3875V13.2788L4.50002 14.7375ZM15.75 16.1925V15.75C15.75 15.6506 15.7105 15.5552 15.6402 15.4849C15.5699 15.4145 15.4745 15.375 15.375 15.375H8.62502C8.52556 15.375 8.43018 15.4145 8.35985 15.4849C8.28953 15.5552 8.25002 15.6506 8.25002 15.75V16.1925L5.86127 14.8388L7.68377 13.8263C7.74169 13.7937 7.78993 13.7464 7.82353 13.689C7.85713 13.6317 7.8749 13.5665 7.87502 13.5V9.75003C7.8749 9.68358 7.85713 9.61835 7.82353 9.56103C7.78993 9.5037 7.74169 9.45634 7.68377 9.42378L7.19627 9.15378L9.66002 7.75503L11.8163 8.95128C11.8733 8.98419 11.9379 9.00152 12.0038 9.00152C12.0696 9.00152 12.1343 8.98419 12.1913 8.95128L14.3475 7.75503L16.8113 9.15378L16.3238 9.42378C16.2644 9.45536 16.2147 9.5023 16.1797 9.5597C16.1448 9.61709 16.1259 9.68283 16.125 9.75003V13.5C16.1251 13.5665 16.1429 13.6317 16.1765 13.689C16.2101 13.7464 16.2583 13.7937 16.3163 13.8263L18.1388 14.8388L15.75 16.1925ZM19.5 14.7375L16.875 13.2788V10.3875L19.5 11.8463V14.7375ZM19.875 11.1975L17.2725 9.75003L19.875 8.30253L22.4775 9.75003L19.875 11.1975ZM22.875 13.2788L20.25 14.7375V11.8463L22.875 10.3875V13.2788Z" fill="black"/>
</svg>
