<svg width="20" height="20" viewBox="0 0 20 20" fill="none" xmlns="http://www.w3.org/2000/svg">
    <path d="M19 7L19 1M19 1H13M19 1L11 9M8 3H5.8C4.11984 3 3.27976 3 2.63803 3.32698C2.07354 3.6146 1.6146 4.07354 1.32698 4.63803C1 5.27976 1 6.11984 1 7.8V14.2C1 15.8802 1 16.7202 1.32698 17.362C1.6146 17.9265 2.07354 18.3854 2.63803 18.673C3.27976 19 4.11984 19 5.8 19H12.2C13.8802 19 14.7202 19 15.362 18.673C15.9265 18.3854 16.3854 17.9265 16.673 17.362C17 16.7202 17 15.8802 17 14.2V12" stroke="#8B8DC2" stroke-width="2" stroke-linecap="round" stroke-linejoin="round"/>
</svg>
