<svg width="13" height="13" viewBox="0 0 13 13" fill="none" xmlns="http://www.w3.org/2000/svg">
<path d="M13 12.3021L9.08632 8.38842C9.82526 7.49895 10.2632 6.36316 10.2632 5.13158C10.2632 2.29895 7.96421 0 5.13158 0C2.29895 0 0 2.29895 0 5.13158C0 7.96421 2.29895 10.2632 5.13158 10.2632C6.36316 10.2632 7.51263 9.82526 8.38842 9.08632L12.3021 13L13 12.3021ZM5.13158 9.27789C2.84632 9.27789 0.985263 7.41684 0.985263 5.13158C0.985263 2.84632 2.84632 0.985263 5.13158 0.985263C7.41684 0.985263 9.27789 2.84632 9.27789 5.13158C9.27789 7.41684 7.41684 9.27789 5.13158 9.27789Z" fill="#9FA2D8"/>
</svg>
