<svg width="22" height="22" viewBox="0 0 22 22" fill="none" xmlns="http://www.w3.org/2000/svg">
<path fill-rule="evenodd" clip-rule="evenodd" d="M9.90521 0.39972C8.32034 0.600171 6.59137 1.20582 5.3732 1.98736C2.97582 3.52536 1.3016 5.94481 0.665926 8.79001C0.442048 9.79205 0.445265 11.9452 0.672287 13.0083C0.961569 14.363 1.64321 15.9853 2.11877 16.4513C2.45651 16.782 2.74086 16.8534 3.49391 16.7964C4.23437 16.7404 4.53695 16.635 4.70829 16.3731C4.81816 16.205 4.83009 15.8927 4.83009 13.187V10.1872L4.99307 9.94488C5.24704 9.56739 5.40086 9.52357 6.47414 9.52357C7.51869 9.52357 7.68331 9.56639 7.93263 9.90262C8.07759 10.0982 8.0836 10.2004 8.1182 13.0632L8.15394 16.0217L8.60076 15.8842C9.34351 15.6558 9.29205 15.9606 9.33336 11.542L9.3691 7.71922L9.60256 7.51032L9.83601 7.30142H10.9269C12.1202 7.30142 12.2383 7.33493 12.4432 7.7319C12.5335 7.90678 12.55 8.45499 12.55 11.2725C12.55 13.382 12.5755 14.6062 12.6194 14.6062C12.805 14.6062 13.4718 14.2444 13.6095 14.069L13.7652 13.8707L13.7654 9.78038C13.7657 5.80409 13.7697 5.68349 13.91 5.45303C14.1291 5.09288 14.4135 5.00973 15.4259 5.00973C16.4322 5.00973 16.7004 5.1004 16.9227 5.51548C17.0436 5.7415 17.0533 5.99852 17.0533 9.006V12.2526L17.2856 12.0905C18.2799 11.3965 20.1529 9.60263 20.6538 8.86442C21.1268 8.16739 21.0918 7.7589 20.4404 6.3735C19.9308 5.28968 19.2669 4.35309 18.3804 3.46771C16.8733 1.96243 15.1532 1.02814 13.0339 0.563648C12.3855 0.421563 10.5097 0.323235 9.90521 0.39972ZM20.952 10.8883C19.7532 12.4967 18.087 14.0312 16.1954 15.2688C13.7634 16.8599 11.0211 18.026 7.90371 18.7945C6.97954 19.0223 5.08945 19.4043 4.88602 19.4043C4.72612 19.4043 5.46644 19.8789 6.2478 20.2773C7.10806 20.716 7.98306 21.0249 8.97592 21.2405C9.44869 21.3432 9.8928 21.3725 10.9774 21.373C12.5359 21.3738 13.0337 21.2983 14.3361 20.8642C17.8484 19.6934 20.5024 16.694 21.2694 13.0284C21.4115 12.3489 21.5645 10.2375 21.4716 10.2375C21.4526 10.2375 21.2188 10.5304 20.952 10.8883Z" fill="black"/>
</svg>
