<svg width="129" height="129" viewBox="0 0 129 129" fill="none" xmlns="http://www.w3.org/2000/svg">
<path opacity="0.3" d="M34.7858 43.6473C34.7858 38.7537 38.7528 34.7866 43.6465 34.7866H120.07C124.964 34.7866 128.931 38.7537 128.931 43.6473V120.071C128.931 124.965 124.964 128.932 120.07 128.932H43.6465C38.7528 128.932 34.7858 124.965 34.7858 120.071V43.6473Z" fill="#FF0093"/>
<path opacity="0.5" d="M111.538 102.677C111.538 107.571 107.571 111.538 102.677 111.538H26.2537C21.3601 111.538 17.393 107.571 17.393 102.677V26.2536C17.393 21.3599 21.3601 17.3929 26.2537 17.3929H102.677C107.571 17.3929 111.538 21.36 111.538 26.2536V102.677Z" fill="#FF0093"/>
<path opacity="0.9" d="M94.1453 85.2845C94.1453 90.1782 90.1782 94.1453 85.2846 94.1453H8.86083C3.96718 94.1453 0.00010561 90.1782 0.00010561 85.2845V8.86077C0.00010561 3.96712 3.96719 4.45748e-05 8.86083 4.45748e-05H85.2846C90.1782 4.45748e-05 94.1453 3.96713 94.1453 8.86077V85.2845Z" fill="#FF0093"/>
</svg>
