<svg width="42" height="42" viewBox="0 0 42 42" fill="none" xmlns="http://www.w3.org/2000/svg">
<g clip-path="url(#clip0_10_2)">
<path d="M27.2589 15.8728C27.3404 17.8603 27.6238 21.2246 27.7601 22.8764C27.77 22.9967 27.7542 23.1177 27.7138 23.2315C27.6734 23.3453 27.6092 23.4491 27.5256 23.5362C27.442 23.6233 27.3408 23.6916 27.2288 23.7366C27.1167 23.7815 26.9964 23.8022 26.8758 23.7971C25.6534 23.74 23.3789 23.6536 20.6579 23.6414C18.0051 23.6293 15.8109 23.7023 14.6213 23.7533C14.5011 23.758 14.3813 23.7372 14.2697 23.6922C14.1582 23.6472 14.0574 23.579 13.9741 23.4923C13.8908 23.4055 13.8268 23.3021 13.7864 23.1888C13.7459 23.0755 13.73 22.9549 13.7395 22.835C13.8745 21.1978 14.1397 17.859 14.226 15.8728C14.2842 14.1866 14.9968 12.5894 16.2127 11.4198C17.4287 10.2502 19.0523 9.60018 20.7394 9.60751C22.4275 9.5989 24.0526 10.2483 25.2697 11.4181C26.4869 12.5878 27.2004 14.1857 27.2589 15.8728ZM20.7309 12.7103C19.9731 12.7101 19.2322 12.9346 18.602 13.3555C17.9717 13.7763 17.4805 14.3746 17.1903 15.0747C16.9001 15.7748 16.8241 16.5452 16.9718 17.2885C17.1195 18.0318 17.4843 18.7146 18.0201 19.2506C18.5558 19.7865 19.2385 20.1515 19.9818 20.2995C20.725 20.4474 21.4955 20.3716 22.1957 20.0816C22.8958 19.7917 23.4943 19.3006 23.9153 18.6705C24.3364 18.0404 24.5611 17.2996 24.5611 16.5418C24.5611 15.5262 24.158 14.5523 23.4402 13.8338C22.7225 13.1154 21.7489 12.7113 20.7334 12.7103H20.7309Z" fill="url(#paint0_linear_10_2)"/>
<path d="M20.7993 14.3447C21.0217 14.5999 21.1444 14.927 21.1447 15.2655C21.1408 15.4592 21.0987 15.6502 21.0209 15.8276C20.943 16.0051 20.831 16.1654 20.6911 16.2995C20.5513 16.4336 20.3864 16.5388 20.2058 16.6091C20.0253 16.6794 19.8326 16.7135 19.6389 16.7093C19.4153 16.7107 19.1942 16.6627 18.9912 16.5687C18.7883 16.4747 18.6087 16.337 18.4652 16.1656C18.4384 16.301 18.4246 16.4386 18.4238 16.5767C18.4238 17.81 19.465 18.8098 20.7494 18.8098C22.0339 18.8098 23.0738 17.81 23.0738 16.5767C23.0738 15.3433 22.0606 14.3642 20.7993 14.3447Z" fill="white"/>
<path d="M24.2339 12.0283C24.2043 12.0301 24.1747 12.026 24.1467 12.0162C24.1187 12.0065 24.0929 11.9912 24.0708 11.9714C24.0487 11.9516 24.0308 11.9276 24.0181 11.9009C24.0054 11.8741 23.9981 11.845 23.9967 11.8154C23.9773 11.3167 24.0673 10.295 25.359 9.17964C26.2494 8.41214 27.4888 8.13482 29.0481 8.35376C29.0779 8.35787 29.1065 8.36795 29.1322 8.38341C29.158 8.39886 29.1803 8.41936 29.1979 8.44368C29.2155 8.468 29.2281 8.49563 29.2347 8.52491C29.2414 8.55419 29.242 8.58451 29.2367 8.61405C29.2263 8.6692 29.1954 8.71838 29.1503 8.75176C29.1052 8.78514 29.0492 8.80025 28.9934 8.79407C27.5739 8.59337 26.4598 8.83421 25.6765 9.50805C24.5526 10.4811 24.4529 11.3532 24.4602 11.8008C24.4615 11.8583 24.4404 11.9141 24.4014 11.9563C24.3623 11.9985 24.3084 12.0239 24.2509 12.027L24.2339 12.0283Z" fill="white"/>
<path d="M28.7323 9.02531C29.089 9.02531 29.3782 8.74704 29.3782 8.40377C29.3782 8.0605 29.089 7.78223 28.7323 7.78223C28.3756 7.78223 28.0864 8.0605 28.0864 8.40377C28.0864 8.74704 28.3756 9.02531 28.7323 9.02531Z" fill="white"/>
<path d="M17.4822 12.0697C17.5117 12.0717 17.5414 12.0677 17.5694 12.0581C17.5973 12.0485 17.6231 12.0334 17.6452 12.0137C17.6673 11.994 17.6852 11.9701 17.698 11.9433C17.7107 11.9166 17.718 11.8876 17.7194 11.858C17.7401 11.3472 17.6549 10.1832 16.3571 9.0605C15.468 8.293 14.2273 8.01568 12.668 8.23462C12.6383 8.23889 12.6098 8.24908 12.5841 8.26458C12.5585 8.28008 12.5362 8.30058 12.5186 8.32486C12.501 8.34913 12.4885 8.3767 12.4818 8.40591C12.4751 8.43512 12.4743 8.46539 12.4795 8.49491C12.4898 8.55005 12.5207 8.59924 12.5658 8.63262C12.6109 8.666 12.6669 8.68111 12.7227 8.67493C14.1422 8.47423 15.2575 8.71506 16.0396 9.38891C17.1672 10.362 17.2645 11.3764 17.2499 11.8362C17.2482 11.894 17.2691 11.9502 17.3081 11.9929C17.3472 12.0356 17.4013 12.0614 17.4591 12.0648L17.4822 12.0697Z" fill="white"/>
<path d="M13.078 9.02531C13.4347 9.02531 13.7239 8.74704 13.7239 8.40377C13.7239 8.0605 13.4347 7.78223 13.078 7.78223C12.7213 7.78223 12.4321 8.0605 12.4321 8.40377C12.4321 8.74704 12.7213 9.02531 13.078 9.02531Z" fill="white"/>
<path d="M41.5095 31.6815C41.5095 29.666 36.4617 26.4647 36.4617 26.4647L36.4033 26.4477C37.2353 23.0809 37.6634 21.5824 37.7182 19.393C37.8398 14.3927 36.5785 10.1599 33.4087 6.44887C30.4616 2.99816 25.7702 0.996094 20.759 0.996094C15.4327 0.996094 11.3276 3.02614 8.28073 6.38927C5.23384 9.7524 3.70492 13.4002 3.7925 19.337C3.81804 20.9985 4.1951 23.7876 5.00882 26.2883L4.95165 26.3053C4.95165 26.3053 0 29.4459 0 31.6219C0 32.2653 2.67591 33.0815 8.19558 33.3406L5.11707 37.9529C4.99544 38.3457 5.07085 38.8858 5.40047 39.1169C5.72543 39.3308 6.0972 39.463 6.48422 39.5025C7.06927 39.5195 7.25172 39.3504 7.46701 38.9624L10.5577 33.5814C13.8418 33.7115 15.9314 33.7809 19.6886 33.7882V39.9464C19.7105 40.3174 19.8674 40.9949 20.8636 40.9949C21.7685 40.9949 21.9242 40.36 21.9242 39.9464V33.7918C25.6766 33.7845 27.7176 33.8344 30.9956 33.7055L34.2346 38.9028C34.2936 39.0706 34.4059 39.2144 34.5544 39.3121C34.703 39.4099 34.8795 39.4563 35.0569 39.4441C35.373 39.4487 35.684 39.3644 35.9545 39.2008C36.3194 39.0378 36.3194 38.4382 36.1722 37.8945L33.1217 33.4598C38.4492 33.017 41.5095 32.1984 41.5095 31.6815ZM9.54327 31.0904C9.04765 31.0827 8.57536 30.8785 8.23026 30.5227C7.88516 30.1668 7.6955 29.6885 7.70297 29.1929C7.70297 28.1444 8.52642 27.4134 9.54327 27.4134C10.5601 27.4134 11.3836 28.1432 11.3836 29.1929C11.3907 29.6884 11.201 30.1666 10.8559 30.5223C10.5109 30.8781 10.0388 31.0824 9.54327 31.0904ZM20.7553 31.195C20.3775 31.2066 20.0048 31.1052 19.6849 30.9037C19.3651 30.7022 19.1127 30.4098 18.96 30.064C18.8073 29.7181 18.7614 29.3346 18.828 28.9625C18.8946 28.5904 19.0708 28.2467 19.334 27.9753C19.5972 27.7039 19.9354 27.5173 20.3053 27.4393C20.6752 27.3614 21.0599 27.3956 21.4103 27.5376C21.7606 27.6796 22.0606 27.923 22.2717 28.2365C22.4829 28.55 22.5957 28.9195 22.5956 29.2975C22.6031 29.7931 22.4134 30.2714 22.0683 30.6273C21.7232 30.9831 21.251 31.1873 20.7553 31.195ZM31.9662 31.3008C31.5883 31.3124 31.2156 31.211 30.8958 31.0095C30.5759 30.808 30.3235 30.5156 30.1708 30.1698C30.0182 29.824 29.9722 29.4404 30.0389 29.0683C30.1055 28.6962 30.2817 28.3525 30.5449 28.0811C30.808 27.8098 31.1462 27.6231 31.5161 27.5452C31.886 27.4672 32.2708 27.5014 32.6211 27.6434C32.9714 27.7854 33.2714 28.0288 33.4826 28.3423C33.6938 28.6559 33.8065 29.0253 33.8065 29.4033C33.8136 29.8989 33.6239 30.377 33.2788 30.7327C32.9338 31.0885 32.4617 31.2928 31.9662 31.3008ZM34.7893 25.7544C31.2315 24.8482 25.9636 24.8932 20.7541 24.8932C15.5446 24.8932 10.6586 24.7339 6.69951 25.7544C6.10716 23.374 5.64252 20.9985 5.58292 19.1582C5.3056 10.605 11.0831 2.4946 20.7541 2.4946C30.4251 2.4946 36.396 10.6111 36.0263 19.1582C35.9107 21.8487 35.1602 24.3118 34.7893 25.7544Z" fill="white"/>
</g>
<defs>
<linearGradient id="paint0_linear_10_2" x1="14.957" y1="12.6301" x2="26.4829" y2="24.5476" gradientUnits="userSpaceOnUse">
<stop stop-color="#EF2F2D"/>
<stop offset="1" stop-color="#89272D"/>
</linearGradient>
<clipPath id="clip0_10_2">
<rect width="42" height="42" fill="white"/>
</clipPath>
</defs>
</svg>
