<svg width="26" height="98" viewBox="0 0 26 98" fill="none" xmlns="http://www.w3.org/2000/svg">
    <path d="M0.475585 77.8595L0.475586 96.128C0.475586 97.6686 1.73809 98.9229 3.28878 98.9229L21.6775 98.9229C23.2282 98.9229 24.4907 97.6686 24.4907 96.128L24.4907 80.668L21.9794 81.3905L23.5987 79.6455L25.1219 77.9959L27.6881 75.0511L3.28878 75.0511C1.73809 75.0647 0.475585 76.319 0.475585 77.8595ZM18.2467 83.1219C18.2467 83.1219 17.6567 83.6127 17.1489 84.0217C16.6412 82.2358 15.5296 81.5541 15.5296 81.5541C15.9001 82.1131 16.1609 82.6448 16.3393 83.1219C16.6274 83.8036 16.8058 84.458 16.9293 85.0988C17.1764 86.4075 17.1077 87.6073 16.9156 88.6298C16.7647 89.4069 16.5588 90.0749 16.3255 90.6339C16.202 90.9474 16.0511 91.2883 15.859 91.6291C15.8315 91.67 15.8178 91.7109 15.7903 91.7518C15.7766 91.7791 15.7629 91.7927 15.7629 91.8063C15.6257 92.0517 15.5296 92.188 15.5296 92.188C15.5296 92.188 16.6137 91.5336 17.1352 89.8022C17.6567 90.2112 18.2605 90.7157 18.2605 90.7157C18.1644 93.7286 16.1883 94.8738 16.1883 94.8738C11.8107 94.8738 8.25647 92.9106 8.25647 92.9106C6.78812 90.9474 6.82929 89.0933 6.82929 89.0933L6.99396 88.957C7.69383 91.4109 8.77794 92.5289 8.77794 92.5289C8.77794 92.5289 8.61327 92.2289 8.3937 91.7245C7.74872 90.2658 7.58405 89.1069 7.52916 88.6298C7.51543 88.548 7.50171 88.4798 7.50171 88.398C7.39193 87.5664 7.36448 86.6257 7.47427 85.6441C7.62522 84.3489 8.00946 82.9583 8.77794 81.5405C8.77794 81.5405 7.74872 82.6175 7.04886 84.9352L6.82929 84.7443C6.82929 84.7443 6.78812 82.8765 8.25647 80.927C8.25647 80.927 11.8107 78.9638 16.1883 78.9638C16.1746 78.9638 18.1507 80.109 18.2467 83.1219ZM6.34899 62.5359L6.34899 67.0621L11.4676 67.0621L14.1985 64.0491L9.2308 64.0491L9.2308 62.4404C9.2308 61.4179 9.72482 60.9135 10.5207 60.9135L14.322 60.9135C15.1179 60.9135 15.6531 61.3907 15.6531 62.4404L15.6531 67.0757L18.5486 67.0757L18.5486 62.5495C18.5624 60.1228 17.341 57.846 14.5416 57.846L10.4521 57.846C7.59777 57.8324 6.34899 60.1091 6.34899 62.5359ZM14.5416 38.814L10.3424 38.814C8.83283 38.814 8.48976 36.1146 9.99928 35.2966L8.98378 32.8017C6.81556 33.7833 6.18431 35.5693 6.18431 37.0553C6.18431 39.482 7.59777 41.8815 10.3424 41.8815L14.5416 41.8815C17.3136 41.8815 18.6996 39.482 18.6996 37.1098C18.6996 35.5829 17.9448 33.7561 15.9687 32.7472L14.7337 35.4193C16.4216 36.0737 16.0099 38.814 14.5416 38.814ZM10.9187 47.0621C10.7129 48.0028 10.3698 48.6299 9.77971 48.6708C8.36625 48.6163 8.31136 46.4486 9.66993 45.1807L8.11924 43.1766C6.58228 44.4309 6.17059 45.8488 6.17059 47.3075C6.17059 49.5297 7.4331 51.6838 9.82088 51.6838C12.1401 51.6838 13.3888 49.9115 13.6907 47.9619C13.828 46.9667 14.2259 45.8624 14.9121 45.8896C16.2158 45.9714 16.1471 48.6436 14.6651 49.8569L16.4902 51.7929C17.9586 50.6613 18.6996 49.1207 18.6996 47.6756C18.6996 45.4534 17.4096 42.9858 15.0493 42.8903C12.0714 42.754 11.3167 44.9081 10.9187 47.0621ZM18.5349 56.1964L18.5349 53.1426L6.34899 53.1426L6.34899 56.1964L18.5349 56.1964ZM6.34898 4.7037L6.34898 9.22993L11.4676 9.22993L14.1985 6.21699L9.23079 6.21699L9.23079 4.60828C9.23079 3.58578 9.72482 3.08135 10.5207 3.08135L14.322 3.08135C15.1179 3.08135 15.6531 3.55852 15.6531 4.60828L15.6531 9.24357L18.5486 9.24357L18.5486 4.7037C18.5624 2.27699 17.341 0.000251033 14.5416 0.000251155L10.4521 0.000251334C7.59777 0.000251459 6.34898 2.27699 6.34898 4.7037ZM6.18431 26.9122C6.18431 29.4207 7.5566 31.9156 10.3698 31.9156L14.5278 31.9156C17.3136 31.9156 18.7133 29.4071 18.7133 26.8849C18.7133 24.3764 17.3136 21.8816 14.5278 21.8816L10.3698 21.8816C7.57032 21.8816 6.18431 24.4037 6.18431 26.9122ZM14.5278 24.949C15.4061 24.949 15.859 25.9306 15.859 26.8986C15.859 27.8802 15.4335 28.8617 14.5278 28.8617L10.3698 28.8617C9.47781 28.8617 8.99751 27.9074 8.99751 26.9531C8.99751 25.9579 9.42292 24.949 10.3698 24.949L14.5278 24.949ZM10.3698 10.9204C7.51543 10.9886 6.36271 12.9245 6.36271 15.4194L6.36271 20.2592L18.5486 20.2592L18.5486 17.1645L14.6788 17.1645L14.6788 16.6191L18.5486 13.8107L18.5486 9.99339L14.3632 13.2926C13.8966 11.8339 12.6204 10.9204 10.3698 10.9204ZM12.0165 15.3649L12.0165 17.1645L9.2308 17.1645L9.2308 15.3649C9.23079 13.4426 12.0165 13.4426 12.0165 15.3649Z" fill="white"/>
</svg>
