<svg width="12" height="12" viewBox="0 0 12 12" fill="none" xmlns="http://www.w3.org/2000/svg">
    <path d="M6 6.75C6.41414 6.75 6.75 6.41414 6.75 6V0.75C6.75 0.335859 6.41414 0 6 0C5.58586 0 5.25 0.335859 5.25 0.75V6C5.25 6.41484 5.58516 6.75 6 6.75ZM9.46172 1.56586C9.13547 1.3118 8.66414 1.36884 8.40891 1.69477C8.15367 2.02148 8.21114 2.49234 8.53744 2.74805C9.54609 3.53672 10.125 4.72266 10.125 6C10.125 8.27414 8.27461 10.125 6 10.125C3.72539 10.125 1.875 8.27344 1.875 6C1.875 4.72195 2.45367 3.53672 3.46219 2.74687C3.78844 2.49117 3.84609 2.02031 3.59072 1.69359C3.33502 1.36758 2.86416 1.31063 2.53791 1.56469C1.16344 2.64141 0.375 4.25859 0.375 6C0.375 9.10078 2.89922 11.625 6 11.625C9.10078 11.625 11.625 9.10078 11.625 6C11.625 4.25859 10.8375 2.64141 9.46172 1.56586Z"
          fill="currentColor"/>
</svg>
