<svg width="11" height="12" viewBox="0 0 7 8" fill="none" xmlns="http://www.w3.org/2000/svg">
    <path d="M1.42589 7.5H5.57392C5.95208 7.5 6.31476 7.34977 6.58217 7.08236C6.84958 6.81494 6.9998 6.45225 6.9998 6.07407V4.64815H6.22205V6.07407C6.22205 6.24597 6.15376 6.41083 6.03221 6.53238C5.91067 6.65394 5.74581 6.72222 5.57392 6.72222H1.42589C1.25399 6.72222 1.08914 6.65394 0.967589 6.53238C0.846041 6.41083 0.777756 6.24597 0.777756 6.07407V1.92593C0.777756 1.75403 0.846041 1.58917 0.967589 1.46762C1.08914 1.34606 1.25399 1.27778 1.42589 1.27778H2.85177V0.5H1.42589C1.04772 0.5 0.685037 0.650231 0.417632 0.917644C0.150227 1.18506 0 1.54775 0 1.92593V6.07407C0 6.45225 0.150227 6.81494 0.417632 7.08236C0.685037 7.34977 1.04772 7.5 1.42589 7.5Z"
          fill="currentColor"/>
    <path d="M2.69141 4.25926L3.24102 4.80889L6.22242 1.82741V3.35185H7.00017V0.888889C7.00017 0.785749 6.9592 0.686834 6.88627 0.613903C6.81335 0.540972 6.71443 0.5 6.6113 0.5H4.1484V1.27778H5.6728L2.69141 4.25926Z"
          fill="currentColor"/>
</svg>
