<svg width="700" height="159" viewBox="0 0 700 159" fill="none" xmlns="http://www.w3.org/2000/svg">
<path d="M2.16211 79.2606C2.16211 121.786 36.6352 156.259 79.1609 156.259C121.687 156.259 156.162 121.786 156.162 79.2606C156.162 36.7349 121.687 2.26172 79.1609 2.26172C36.6352 2.26172 2.16211 36.7348 2.16211 79.2606Z" fill="#0C0C4F" stroke="#EC796B" stroke-width="4"/>
<path fill-rule="evenodd" clip-rule="evenodd" d="M44.3163 60.6493L46.2664 54.6245C46.6628 53.3991 47.6299 52.4456 48.8598 52.0696L54.9141 50.2078C55.7521 49.9518 55.7589 48.7695 54.9277 48.5L48.9006 46.5498C47.6775 46.1535 46.7239 45.1863 46.3457 43.9565L44.4861 37.9022C44.2302 37.0664 43.0479 37.0573 42.7783 37.8909L40.8282 43.9157C40.4318 45.1388 39.4647 46.0923 38.2348 46.4706L32.1805 48.3301C31.3425 48.5883 31.3334 49.7684 32.1669 50.0379L38.194 51.988C39.4171 52.3844 40.3707 53.3538 40.7489 54.5837L42.6085 60.6357C42.8644 61.4738 44.0467 61.4828 44.3163 60.6493Z" fill="#FAFAFA"/>
<path fill-rule="evenodd" clip-rule="evenodd" d="M140.01 57.1428C137.515 54.3518 133.619 52.7803 129.832 52.1359C126.015 51.517 122.012 51.5744 118.244 52.2439C110.619 53.5337 103.692 56.6909 97.6502 60.5858C94.5127 62.4973 91.8371 64.7092 89.0651 66.9617C87.7295 68.101 86.5118 69.3141 85.2436 70.5099L81.7784 73.9577C78.0132 77.8935 74.3019 81.4782 70.7111 84.4495C67.1058 87.4072 63.7351 89.6535 60.4133 91.2221C57.0936 92.7989 53.5415 93.7262 48.9116 93.8747C44.3224 94.0365 38.8928 93.2082 33.085 91.8411C27.246 90.48 21.1144 88.5399 14.2625 86.8705C16.6533 93.5032 20.2535 99.3644 24.8758 104.722C29.5523 109.987 35.3919 114.786 42.8935 117.942C50.2868 121.168 59.5778 122.326 68.2652 120.579C76.9756 118.902 84.6194 114.871 90.798 110.21C96.9925 105.501 102.004 100.137 106.229 94.5597C107.395 93.019 108.012 92.1566 108.856 90.9523L111.189 87.4968C112.81 85.3594 114.286 82.9258 115.891 80.8081C119.037 76.3729 122.138 71.9429 125.742 67.8614C127.556 65.7913 129.469 63.8112 131.727 61.9083C132.854 60.9795 134.07 60.0705 135.418 59.2517C136.786 58.3685 138.231 57.6772 140.01 57.1428Z" fill="#EC796B"/>
<path fill-rule="evenodd" clip-rule="evenodd" d="M140.01 57.1425C137.329 50.3766 132.344 44.6811 125.654 40.4784C119.003 36.3218 109.767 34.2006 100.615 36.0088C96.0929 36.8833 91.7122 38.5669 87.8681 40.8089C84.0412 43.0421 80.612 45.7302 77.6433 48.6141C76.1613 50.0609 74.8161 51.5701 73.4797 53.0879L70.0159 57.5041L64.666 64.6129C57.8457 73.7593 50.5012 84.4783 38.4484 87.6545C26.6161 90.7725 21.4842 88.0111 14.2625 86.8702C15.583 90.2794 17.2186 93.5901 19.4361 96.5026C21.6122 99.4741 24.1825 102.265 27.3781 104.657C28.993 105.806 30.698 106.94 32.5917 107.902C34.4767 108.831 36.5095 109.649 38.6793 110.265C42.9953 111.448 47.8544 111.862 52.5591 111.226C57.266 110.598 61.765 109.106 65.6976 107.125C69.6592 105.163 73.1102 102.773 76.1917 100.251C82.3172 95.1638 87.0818 89.5432 91.1065 83.8617C93.1309 81.0211 94.9685 78.1269 96.668 75.2319L98.6683 71.7853C99.2798 70.7778 99.8984 69.7641 100.527 68.8201C103.061 65.0271 105.54 61.9858 108.551 59.703C111.52 57.3613 115.655 55.631 121.18 55.2291C126.682 54.8223 133.034 55.5737 140.01 57.1425Z" fill="#FAFAFA"/>
<path fill-rule="evenodd" clip-rule="evenodd" d="M110.243 113.359C110.243 118.328 114.274 122.359 119.243 122.359C124.213 122.359 128.238 118.328 128.238 113.359C128.238 108.39 124.213 104.359 119.243 104.359C114.274 104.359 110.243 108.39 110.243 113.359Z" fill="#EC796B"/>
<path d="M690.596 57.1706V48.0831C690.596 47.7228 690.304 47.4307 689.944 47.4307H638.164C637.804 47.4307 637.512 47.7228 637.512 48.0831V57.1706H658.556V115.961H669.551V57.1706H690.596Z" fill="white"/>
<path d="M583.395 47.4307C583.034 47.4307 582.742 47.7227 582.742 48.0831V115.308C582.742 115.668 583.034 115.961 583.395 115.961H626.969C627.329 115.961 627.621 115.668 627.621 115.308V106.317H593.737V84.7797H621.732V75.3294H593.737V57.0741H625.208V48.0831C625.208 47.7228 624.916 47.4307 624.555 47.4307H583.395Z" fill="white"/>
<path d="M558.127 115.562L558.364 115.961H566.81C567.171 115.961 567.463 115.668 567.463 115.308V48.0831C567.463 47.7228 567.171 47.4307 566.81 47.4307H556.661V94.8914C554.899 92.086 552.853 88.9978 550.523 85.6275C547.556 81.2413 544.364 76.7918 540.947 72.279C537.595 67.702 534.178 63.2855 530.696 59.0295C527.275 54.7059 524.044 50.9245 521.001 47.6876L520.76 47.4307H512.811C512.45 47.4307 512.158 47.7227 512.158 48.0831V115.308C512.158 115.668 512.45 115.961 512.811 115.961H522.96V65.1177C524.348 66.7566 525.825 68.5729 527.392 70.567C529.509 73.2615 531.691 76.1497 533.939 79.2318L533.941 79.2351L533.944 79.2384C536.189 82.2543 538.436 85.3992 540.683 88.6732L540.686 88.6776L540.689 88.682C543.001 91.9576 545.216 95.2006 547.335 98.411L547.337 98.4142L547.34 98.4173C549.457 101.561 551.413 104.608 553.208 107.557L553.211 107.562L553.215 107.568C555.078 110.523 556.716 113.188 558.127 115.562Z" fill="white"/>
<path d="M498.878 48.7956L499.127 48.5226C499.509 48.1038 499.212 47.4307 498.645 47.4307H486.607L486.363 47.7137C484.765 49.5672 482.78 51.7453 480.404 54.2493L480.404 54.2497C478.09 56.692 475.615 59.2633 472.979 61.9637C470.344 64.6632 467.676 67.3627 464.977 70.0623C462.818 72.1702 460.803 74.113 458.932 75.8908V47.4307H448.59C448.23 47.4307 447.938 47.7227 447.938 48.0831V115.308C447.938 115.668 448.23 115.961 448.59 115.961H458.932V84.8713C461.202 86.3577 463.523 88.097 465.894 90.0909L465.898 90.0938L465.901 90.0966C468.773 92.458 471.583 95.0443 474.331 97.856L474.337 97.8627L474.344 97.8693C477.153 100.615 479.803 103.52 482.294 106.585L482.296 106.588L482.299 106.592C484.789 109.593 486.989 112.59 488.9 115.584L489.14 115.961H500.874C501.376 115.961 501.69 115.418 501.44 114.983L501.3 114.739C499.539 111.674 497.328 108.457 494.672 105.087C492.083 101.722 489.301 98.4231 486.326 95.1894C483.351 91.9552 480.31 88.914 477.203 86.066C474.389 83.4865 471.7 81.2716 469.137 79.4246C471.317 77.2969 473.628 75.0122 476.07 72.5705C478.775 69.8652 481.48 67.1279 484.185 64.3583C486.955 61.5242 489.596 58.7864 492.109 56.1449L492.112 56.1413L492.116 56.1377C494.627 53.4334 496.881 50.9859 498.878 48.7956Z" fill="white"/>
<path fill-rule="evenodd" clip-rule="evenodd" d="M385.525 46.917C385.165 46.9171 384.873 47.2092 384.873 47.5694V115.349C384.873 115.71 385.165 116.002 385.525 116.002H394.842V91.0812H408.452C409.983 92.9145 411.476 94.8327 412.933 96.8357L412.938 96.8433L412.944 96.8508C415.326 99.9741 417.527 103.232 419.548 106.626L419.55 106.629L419.552 106.633C421.382 109.636 422.979 112.602 424.344 115.531L424.563 116.002H435.588C436.061 116.002 436.376 115.515 436.18 115.085C434.912 112.307 433.538 109.586 432.012 106.936C429.938 103.232 427.663 99.5643 425.188 95.934C423.773 93.8593 422.328 91.8439 420.853 89.8876C424.965 88.6303 428.219 86.3568 430.572 83.0569L430.574 83.0543C433.399 79.0606 434.799 74.3636 434.799 68.9989C434.799 65.3124 434.158 61.9392 432.861 58.8913C431.559 55.799 429.6 53.2345 426.99 51.2113C424.398 49.1773 421.205 47.8831 417.444 47.3027C416.567 47.141 415.661 47.0442 414.727 47.0113C413.815 46.9486 413.019 46.9166 412.342 46.9166C409.484 46.9166 406.625 46.9163 403.767 46.916L403.767 46.916C397.686 46.9154 391.606 46.915 385.525 46.917ZM424.643 68.9989C424.643 70.7794 424.347 72.5315 423.751 74.2585C423.169 75.917 422.239 77.371 420.954 78.6273C419.736 79.8169 418.13 80.6606 416.095 81.1327C415.45 81.2791 414.756 81.383 414.01 81.4426L414.009 81.4427L414.008 81.4428C413.275 81.5039 412.627 81.5337 412.061 81.5337H394.842V56.4641H412.061C412.627 56.4641 413.275 56.4939 414.008 56.555L414.025 56.5564L414.043 56.5571C414.768 56.5861 415.44 56.6873 416.063 56.857L416.083 56.8626L416.104 56.8671C418.131 57.3078 419.732 58.1484 420.947 59.3637L420.95 59.3671L420.954 59.3703C422.237 60.6247 423.167 62.0932 423.751 63.7841L423.751 63.7862L423.752 63.7883C424.346 65.4821 424.643 67.2178 424.643 68.9989Z" fill="white"/>
<path fill-rule="evenodd" clip-rule="evenodd" d="M360.412 106.913L360.413 106.916L360.414 106.919C361.381 109.693 362.413 112.531 363.51 115.433L363.709 115.961H374.738C375.191 115.961 375.506 115.511 375.351 115.085C372.942 108.466 370.51 101.855 368.029 95.2628C365.775 89.2088 363.553 83.4756 361.362 78.0634C359.236 72.651 357.109 67.4952 354.982 62.596C352.848 57.6167 350.602 52.6868 348.263 47.8008C348.154 47.5745 347.926 47.4307 347.675 47.4307H338.878C338.627 47.4307 338.398 47.5745 338.29 47.8008C335.95 52.6869 333.705 57.617 331.571 62.5964C329.444 67.4938 327.286 72.6481 325.096 78.0592L325.094 78.0631L325.093 78.067C322.967 83.4775 320.777 89.2094 318.524 95.2625C316.042 101.855 313.61 108.466 311.201 115.085C311.046 115.511 311.361 115.961 311.814 115.961H322.372L322.373 115.96H322.579L322.821 115.7C325.368 112.966 328.215 110.282 331.363 107.65L331.366 107.648L331.369 107.645C334.529 104.947 337.824 102.445 341.253 100.138L341.261 100.133L341.268 100.127C344.646 97.7404 348.046 95.5986 351.467 93.7013L351.471 93.6991L351.475 93.6968C352.707 92.9956 353.92 92.3424 355.114 91.7369L357.422 98.3295L357.424 98.3345L357.424 98.3348C358.452 101.227 359.448 104.086 360.412 106.913ZM348.547 74.406L348.549 74.4116L348.551 74.4172C349.48 76.7689 350.409 79.1599 351.338 81.5905C351.269 81.6211 351.198 81.6529 351.126 81.6857C347.857 83.1747 344.343 85.0995 340.586 87.456C336.989 89.7121 333.42 92.1632 329.88 94.809L331.379 90.5283C333.362 84.9645 335.345 79.5923 337.328 74.4115C339.151 69.7392 341.05 65.2452 343.024 60.9293C344.94 65.2435 346.781 69.7357 348.547 74.406Z" fill="white"/>
<path d="M313.893 57.1706V48.0831C313.893 47.7228 313.601 47.4307 313.24 47.4307H261.461C261.101 47.4307 260.809 47.7228 260.809 48.0831V57.1706H281.853V115.308C281.853 115.668 282.145 115.961 282.506 115.961H292.196C292.556 115.961 292.848 115.668 292.848 115.308V57.1706H313.893Z" fill="white"/>
<path d="M213.298 115.127L213.295 115.126C209.307 113.426 205.99 110.999 203.36 107.843L203.357 107.839L203.354 107.836C200.751 104.64 199.06 100.872 198.275 96.5518C198.236 96.3358 198.285 96.113 198.412 95.9339C198.539 95.7548 198.733 95.6346 198.95 95.6004L207.721 94.2181C208.136 94.1527 208.533 94.4134 208.637 94.8204C209.703 98.9617 211.897 102.176 215.223 104.506C218.599 106.816 222.58 107.983 227.2 107.983C230.197 107.983 232.875 107.52 235.246 106.609C237.644 105.667 239.506 104.346 240.865 102.662C242.202 101.006 242.877 99.0448 242.877 96.7396C242.877 95.3085 242.623 94.1371 242.152 93.1957C242.148 93.1872 242.144 93.1787 242.14 93.1701C241.682 92.1672 241.042 91.3294 240.217 90.647C240.209 90.6405 240.201 90.6339 240.194 90.6271C239.366 89.8879 238.415 89.263 237.338 88.7542C236.236 88.2337 235.087 87.8045 233.89 87.467L233.879 87.4639L216.384 82.2677C214.436 81.6835 212.553 80.953 210.735 80.0763L210.73 80.0739L210.724 80.0711C208.878 79.1479 207.224 78.0076 205.766 76.6494L205.762 76.645L205.759 76.6427C204.281 75.2319 203.109 73.5548 202.242 71.6198L202.24 71.6151C201.358 69.6149 200.931 67.2896 200.931 64.6607C200.931 60.4463 202.02 56.8071 204.235 53.7874L204.236 53.7861C206.46 50.765 209.459 48.4693 213.203 46.8926C216.943 45.3182 221.138 44.556 225.776 44.5884C230.476 44.6208 234.704 45.4639 238.444 47.1363C242.213 48.7754 245.339 51.142 247.807 54.2353C250.313 57.3353 251.984 61.0345 252.833 65.3123C252.876 65.5276 252.83 65.7511 252.706 65.9322C252.582 66.1132 252.39 66.2366 252.174 66.2744L243.165 67.8473C242.951 67.8846 242.732 67.8353 242.555 67.7103C242.377 67.5852 242.257 67.3948 242.221 67.181C241.766 64.5117 240.756 62.2477 239.202 60.3656L239.193 60.3547C237.657 58.427 235.731 56.9501 233.401 55.9213L233.393 55.9177C231.058 54.8564 228.486 54.3054 225.666 54.2748L225.665 54.2748C222.962 54.2441 220.546 54.6742 218.404 55.5489C216.256 56.4262 214.58 57.6368 213.344 59.1673L213.339 59.1733C212.126 60.6457 211.523 62.3366 211.523 64.2794C211.523 66.2086 212.073 67.6967 213.114 68.8217C214.237 70.0034 215.618 70.9575 217.27 71.6792C219.021 72.398 220.72 72.9901 222.369 73.4568L222.373 73.4579L235.429 77.2222C236.951 77.6434 238.689 78.2233 240.641 78.9591C242.684 79.7172 244.654 80.7854 246.55 82.1582C248.502 83.5389 250.105 85.3824 251.364 87.6685C252.658 89.9846 253.278 92.8647 253.278 96.2629C253.278 99.6786 252.588 102.749 251.186 105.453C249.826 108.14 247.916 110.397 245.466 112.218L245.46 112.222C243.024 114 240.203 115.342 237.009 116.255C233.813 117.2 230.399 117.67 226.771 117.67C221.816 117.67 217.32 116.828 213.298 115.127Z" fill="white"/>
</svg>
