<svg xmlns="http://www.w3.org/2000/svg" width="310.986" height="56.206" viewBox="0 0 310.986 56.206">
  <path d="M298.527,30.888h11.118v-5.8H298.527V18.341h12.239V12.387H292.309V43.9h18.677V37.962H298.527Zm-31.047-18.5v5.954h7.558V43.9h6.2V18.341h7.6V12.387ZM269.04,43.9l-10.7-31.508h-7.69L239.926,43.9h6.7l1.8-5.669h12.063l1.8,5.669Zm-14.568-24.61,4.175,13.141h-8.372ZM233.5,32.538c.058,1.747-1.814,3.656-3.513,4.808a9.509,9.509,0,0,1-5.544,1.643,9.887,9.887,0,0,1-7.433-3,10.7,10.7,0,0,1-2.9-7.757,10.514,10.514,0,0,1,2.857-7.678,9.987,9.987,0,0,1,7.478-2.925,10.328,10.328,0,0,1,5.524,1.518,8.012,8.012,0,0,1,3.382,3.75h6.585a13.966,13.966,0,0,0-5.5-8.113,16.216,16.216,0,0,0-9.989-3.271,15.971,15.971,0,0,0-11.887,4.777,16.222,16.222,0,0,0-4.7,11.841A16.6,16.6,0,0,0,212.4,39.994a15,15,0,0,0,11.372,4.8c4.688,0,8.369-1.116,11.484-3.876a15.5,15.5,0,0,0,4.677-9.935V26.958H224.751v5.58Z" fill="#fafafa"/>
  <path d="M56.206,28.1A28.1,28.1,0,1,1,28.1,0a28.1,28.1,0,0,1,28.1,28.1" fill="#29296e"/>
  <path d="M41.18,20.589l-.715-2.208a1.445,1.445,0,0,0-.95-.936L37.3,16.763a.328.328,0,0,1,0-.626l2.208-.715a1.443,1.443,0,0,0,.936-.95l.682-2.218a.328.328,0,0,1,.626,0l.714,2.208a1.444,1.444,0,0,0,.951.936l2.218.682a.328.328,0,0,1,0,.626l-2.208.714a1.448,1.448,0,0,0-.937.951l-.681,2.218a.328.328,0,0,1-.626,0" fill="#fafafa"/>
  <path d="M2.555,27.658a6.933,6.933,0,0,1,3.362-2.919,13.726,13.726,0,0,1,4.409-1.117,21.68,21.68,0,0,1,8.65,1.106,30.45,30.45,0,0,1,3.9,1.561c.621.3,1.2.638,1.8.965l1.66.961a52.4,52.4,0,0,0,5.249,2.876,19.764,19.764,0,0,0,4.586,1.54,10.9,10.9,0,0,0,4.631-.143,24.464,24.464,0,0,0,5.8-2.355c2.081-1.1,4.213-2.451,6.647-3.769A22.143,22.143,0,0,1,51.011,34.2a19.6,19.6,0,0,1-5.516,6.82,17.124,17.124,0,0,1-9.365,3.537,21.6,21.6,0,0,1-9.59-1.681,31.6,31.6,0,0,1-7.422-4.4c-.6-.469-.917-.734-1.358-1.107L16.53,36.3c-.83-.649-1.633-1.426-2.454-2.068A59.4,59.4,0,0,0,9.042,30.3a21.643,21.643,0,0,0-2.867-1.661A12.464,12.464,0,0,0,4.508,28a6.879,6.879,0,0,0-1.953-.341" fill="#ff4f0a"/>
  <path d="M2.555,27.658A13.9,13.9,0,0,1,15.394,15.7a16.058,16.058,0,0,1,5.317.547,20.889,20.889,0,0,1,4.661,1.94c.708.4,1.369.839,2.028,1.281l1.757,1.33L31.9,22.958c1.78,1.417,3.478,2.727,5.047,3.81a19.378,19.378,0,0,0,4.223,2.339,8.024,8.024,0,0,0,5.024.1,22.517,22.517,0,0,0,3.343-1.173c1.172-.495,2.388-1.085,3.719-1.67a15.347,15.347,0,0,1-1,4.174,15.009,15.009,0,0,1-2.2,3.888A16.1,16.1,0,0,1,48.4,36.179a14.052,14.052,0,0,1-2.074,1.506,13.893,13.893,0,0,1-5.172,1.754,16.38,16.38,0,0,1-5.4-.243,21.732,21.732,0,0,1-4.671-1.56,33.013,33.013,0,0,1-7.3-4.728c-1.053-.876-2.039-1.79-2.974-2.719l-1.1-1.108c-.333-.321-.67-.645-1-.94a14.314,14.314,0,0,0-3.958-2.658,8.881,8.881,0,0,0-5.241-.435,25.847,25.847,0,0,0-6.955,2.61" fill="#fafafa"/>
  <path d="M13.787,42.283a1.52,1.52,0,1,1-1.519-1.519,1.519,1.519,0,0,1,1.519,1.519" fill="#fafafa"/>
  <path d="M13.787,42.283a1.52,1.52,0,1,1-1.519-1.519,1.519,1.519,0,0,1,1.519,1.519" fill="#fafafa"/>
  <path d="M98.105,28.87a32.213,32.213,0,0,0-5.568-2.523,23.4,23.4,0,0,1-5.6-2.734,3.991,3.991,0,0,1-1.567-3.345A4.033,4.033,0,0,1,86.958,16.9a6.641,6.641,0,0,1,4.19-1.234,6.244,6.244,0,0,1,4.234,1.412,5.015,5.015,0,0,1,1.634,4.012h4.245A8.7,8.7,0,0,0,98.305,14.1a10.611,10.611,0,0,0-7.124-2.523A10.93,10.93,0,0,0,84.1,13.922a7.671,7.671,0,0,0-2.912,6.3A7.326,7.326,0,0,0,82.7,25.091,15.435,15.435,0,0,0,84.235,26.7a15.406,15.406,0,0,0,3.09,1.8,20.72,20.72,0,0,0,4,1.545,28.5,28.5,0,0,1,4.945,2.445,3.854,3.854,0,0,1,1.656,3.3,4.035,4.035,0,0,1-1.722,3.389,7.782,7.782,0,0,1-4.757,1.29A7.7,7.7,0,0,1,86.5,38.95,5.232,5.232,0,0,1,84.591,34.6H80.368a8.976,8.976,0,0,0,3.256,7.379,12.062,12.062,0,0,0,7.857,2.645,11.89,11.89,0,0,0,7.646-2.423,7.9,7.9,0,0,0,3.012-6.6,7.791,7.791,0,0,0-4.034-6.735" fill="#fafafa"/>
  <polygon points="126.217 12.473 105.264 12.473 105.264 16.457 113.65 16.457 113.65 44.034 117.787 44.034 117.787 16.457 126.217 16.457 126.217 12.473" fill="#fafafa"/>
  <path d="M134.6,31.106l4.915-13.7,3.851,10.737a18.909,18.909,0,0,0-8.766,2.966m2.538-18.633L125.49,44.034h4.468a30.219,30.219,0,0,1,2.055-4.947A15.292,15.292,0,0,1,144.8,32.15l4.263,11.884h4.468L141.865,12.473Z" fill="#fafafa"/>
  <polygon points="208.045 12.473 202.895 12.473 189.733 26.779 189.733 12.473 185.552 12.473 185.552 44.034 189.733 44.034 189.733 28.892 203.357 44.034 208.485 44.034 194.113 27.857 208.045 12.473" fill="#fafafa"/>
  <path d="M168.209,16.413a5.341,5.341,0,0,1,3.983,1.706,5.73,5.73,0,0,1,1.651,4.138,5.746,5.746,0,0,1-1.651,4.171c-1.992,2.036-6.6,1.63-11.168,1.651l-.123,0V16.413Zm4.259,16.26a17.686,17.686,0,0,0-1.933-1.552,8.993,8.993,0,0,0,5.641-3.219,8.9,8.9,0,0,0,1.849-5.634,9.807,9.807,0,0,0-9.816-9.794H156.72V44.035H160.9v-11.9a13.1,13.1,0,0,1,8.813,3.518,29.885,29.885,0,0,1,6.135,8.382h4.441a33.194,33.194,0,0,0-7.822-11.36" fill="#fafafa"/>
</svg>
