<svg width="20" height="18" viewBox="0 0 20 18" fill="none" xmlns="http://www.w3.org/2000/svg">
    <path d="M9.99904 6.66686V10.0002M9.99904 13.3335H10.0074M8.57404 2.38352L1.51571 14.1669C1.37018 14.4189 1.29318 14.7046 1.29236 14.9956C1.29155 15.2866 1.36695 15.5728 1.51106 15.8256C1.65518 16.0785 1.86298 16.2891 2.1138 16.4367C2.36462 16.5843 2.64971 16.6637 2.94071 16.6669H17.0574C17.3484 16.6637 17.6335 16.5843 17.8843 16.4367C18.1351 16.2891 18.3429 16.0785 18.487 15.8256C18.6311 15.5728 18.7065 15.2866 18.7057 14.9956C18.7049 14.7046 18.6279 14.4189 18.4824 14.1669L11.424 2.38352C11.2755 2.13861 11.0663 1.93612 10.8167 1.79559C10.5671 1.65506 10.2855 1.58124 9.99904 1.58124C9.71259 1.58124 9.43098 1.65506 9.18138 1.79559C8.93177 1.93612 8.7226 2.13861 8.57404 2.38352Z" stroke="#DC6803" stroke-width="1.66667" stroke-linecap="round" stroke-linejoin="round"/>
</svg>
