<?xml version="1.0" encoding="UTF-8"?>
<svg xmlns:xodm="http://www.corel.com/coreldraw/odm/2003" xmlns="http://www.w3.org/2000/svg" xmlns:xlink="http://www.w3.org/1999/xlink" version="1.1" id="Layer_1" x="0px" y="0px" viewBox="0 0 2500 2500" style="enable-background:new 0 0 2500 2500;" xml:space="preserve">
<style type="text/css">
	.st0{clip-path:url(#SVGID_00000081648457739569956610000001876617350633091971_);}
	.st1{fill:#745DDF;}
	.st2{fill:#2EB6EA;}
	.st3{fill:#FFFFFF;}
	.st4{fill:none;}
</style>
<g id="Layer_x0020_1">
	<g>
		<defs>
			<rect id="SVGID_1_" y="0" width="2500" height="2500" rx="2500"></rect>
		</defs>
		<clipPath id="SVGID_00000100375280126383360610000006838414456746908034_">
			<use xlink:href="#SVGID_1_" style="overflow:visible;"></use>
		</clipPath>
		<g style="clip-path:url(#SVGID_00000100375280126383360610000006838414456746908034_);">
			<g>
				<path class="st1" d="M2450,1608c-132,455-511,797-977,881v-356c84-32,160-83,222-149c34-37,64-78,87-122c44-84,68-177,68-272      c0-1,0-2,0-3c0-314-227-440-440-533l-108-48c-115-52-203-98-203-176c0-109,95-167,184-167c95,0,149,35,206,134l44,77l285-183      l-37-69c-65-124-176-220-308-266V30c28,5,55,11,83,18c3,1,6,1,9,2s6,1,9,2c1,0,2,0,3,1c7,2,15,4,23,6c534,155,901,644,901,1200      c0,118-17,236-50,349l0,0H2450z"></path>
				<path class="st2" d="M1500,1604c0,143-129,232-249,232c-144,0-226-119-242-229l-14-96l-345,97l16,77c49,243,215,418,441,470v344      c-61-7-122-19-181-35c-8-2-17-4-25-7C368,2302,0,1813,0,1257V56C0,29,22,7,49,7h1058v344c-124,36-229,118-295,228      c-42,73-64,155-64,239c0,1,0,2,0,3v7c3,280,209,398,404,486l97,42l8,4c154,71,241,117,241,243L1500,1604z"></path>
				<path class="st3" d="M1849,1587c0,1,0,2,0,3c0,95-23,188-68,272c-23,44-53,86-87,122c-62,66-138,117-222,149v357l-100,9      c0,0-214,6-265,0l-1-343c-225-53-391-227-441-470l-16-77l345-97l14,96c16,110,98,229,242,229c120,0,249-89,249-232      c0-126-87-172-242-243l-8-4l-97-42c-195-88-401-205-404-486v-7c0-1,0-2,0-3c0-84,22-166,64-239c66-111,171-193,295-228V9      c225-2,243-1,366,21v327c133,46,243,141,308,266l37,69l-285,183l-44-77c-57-99-111-134-206-134c-90,0-184,58-184,167      c0,79,88,125,203,176l108,48c213,93,440,219,440,533L1849,1587z"></path>
			</g>
		</g>
	</g>
	<polygon class="st4" points="0,2500 2500,2500 2500,0 0,0  "></polygon>
</g>
</svg>
