<?xml version="1.0" encoding="UTF-8"?>
<!DOCTYPE svg PUBLIC "-//W3C//DTD SVG 1.1//EN" "http://www.w3.org/Graphics/SVG/1.1/DTD/svg11.dtd">
<svg xmlns="http://www.w3.org/2000/svg" version="1.1" width="64px" height="64px" style="shape-rendering:geometricPrecision; text-rendering:geometricPrecision; image-rendering:optimizeQuality; fill-rule:evenodd; clip-rule:evenodd" xmlns:xlink="http://www.w3.org/1999/xlink">
<g><path style="opacity:0.984" fill="#ffd389" d="M 24.5,-0.5 C 28.8333,-0.5 33.1667,-0.5 37.5,-0.5C 51.615,3.28121 60.2817,12.2812 63.5,26.5C 63.5,29.8333 63.5,33.1667 63.5,36.5C 60.1667,51.1667 51.1667,60.1667 36.5,63.5C 33.1667,63.5 29.8333,63.5 26.5,63.5C 12.2812,60.2817 3.28121,51.615 -0.5,37.5C -0.5,33.1667 -0.5,28.8333 -0.5,24.5C 3.5,11.8333 11.8333,3.5 24.5,-0.5 Z"/></g>
<g><path style="opacity:1" fill="#ff7d6b" d="M 17.5,56.5 C 10.0913,52.7384 5.25801,46.7384 3,38.5C 0.287681,20.5698 7.45435,8.73649 24.5,3C 49.1672,1.33423 61.0006,12.8342 60,37.5C 54.8746,54.6056 43.3746,62.1056 25.5,60C 22.4006,59.6126 19.734,58.4459 17.5,56.5 Z"/></g>
<g><path style="opacity:1" fill="#ffaa88" d="M 16.5,31.5 C 17.2778,32.1556 17.9444,32.9889 18.5,34C 17.1224,36.0983 17.4558,37.9317 19.5,39.5C 20.1924,38.9747 20.6924,38.3081 21,37.5C 22.3333,39.5 23.6667,41.5 25,43.5C 25.3826,42.944 25.8826,42.6107 26.5,42.5C 27.9894,44.8051 29.4894,47.1384 31,49.5C 31.7083,48.6195 32.5416,47.9528 33.5,47.5C 35.9154,47.3735 38.2487,47.2068 40.5,47C 38.9697,49.352 37.3031,51.5187 35.5,53.5C 32.0468,52.3076 28.2135,50.9743 24,49.5C 23.6667,49.8333 23.3333,50.1667 23,50.5C 21.0148,47.1253 18.6815,44.1253 16,41.5C 15.3162,40.2161 15.4829,39.0495 16.5,38C 14.048,35.6162 14.048,33.4495 16.5,31.5 Z"/></g>
<g><path style="opacity:1" fill="#ffb28c" d="M 57.5,39.5 C 55.5682,46.1381 51.5682,51.1381 45.5,54.5C 44.0245,53.738 42.6912,53.4047 41.5,53.5C 46.0848,45.9953 50.9182,38.662 56,31.5C 57.2525,34.0135 57.7525,36.6802 57.5,39.5 Z"/></g>
<g><path style="opacity:1" fill="#fe878d" d="M 34.5,18.5 C 39.4161,19.086 42.4161,21.7527 43.5,26.5C 45.1667,26.5 46.8333,26.5 48.5,26.5C 47.833,24.1806 47.6664,21.8473 48,19.5C 48.3333,20.5 48.6667,21.5 49,22.5C 49.104,25.6634 49.2706,28.6634 49.5,31.5C 47.9031,35.1894 45.9031,38.6894 43.5,42C 40.7934,42.3951 38.1267,42.8951 35.5,43.5C 42.5946,34.0304 41.2612,33.0304 31.5,40.5C 29.1495,39.1389 26.8162,37.8056 24.5,36.5C 24.8417,35.6618 25.5084,35.3284 26.5,35.5C 28.2292,36.1175 29.7292,37.1175 31,38.5C 34.7945,36.3582 38.2945,33.8582 41.5,31C 39.2884,26.7412 36.955,22.5746 34.5,18.5 Z"/></g>
<g><path style="opacity:1" fill="#ff987e" d="M 50.5,13.5 C 52.9842,15.1198 54.4842,17.4531 55,20.5C 56.3731,25.6194 57.5397,30.7861 58.5,36C 58.4857,37.3847 58.1524,38.5514 57.5,39.5C 57.7525,36.6802 57.2525,34.0135 56,31.5C 50.9182,38.662 46.0848,45.9953 41.5,53.5C 42.6912,53.4047 44.0245,53.738 45.5,54.5C 42.2412,56.6206 38.5745,57.6206 34.5,57.5C 34.5,57.1667 34.5,56.8333 34.5,56.5C 35.1098,55.609 35.4431,54.609 35.5,53.5C 37.3031,51.5187 38.9697,49.352 40.5,47C 38.2487,47.2068 35.9154,47.3735 33.5,47.5C 33.7329,45.9382 34.3995,44.6049 35.5,43.5C 38.1267,42.8951 40.7934,42.3951 43.5,42C 45.9031,38.6894 47.9031,35.1894 49.5,31.5C 51.7226,29.5593 53.0559,27.0593 53.5,24C 52.194,20.5825 51.194,17.0825 50.5,13.5 Z"/></g>
<g><path style="opacity:1" fill="#fefbfe" d="M 24.5,36.5 C 26.8162,37.8056 29.1495,39.1389 31.5,40.5C 41.2612,33.0304 42.5946,34.0304 35.5,43.5C 34.3995,44.6049 33.7329,45.9382 33.5,47.5C 32.5416,47.9528 31.7083,48.6195 31,49.5C 29.4894,47.1384 27.9894,44.8051 26.5,42.5C 25.0883,40.0199 23.4216,37.6866 21.5,35.5C 21.6667,35.1667 21.8333,34.8333 22,34.5C 22.7083,35.3805 23.5416,36.0472 24.5,36.5 Z"/></g>
<g><path style="opacity:1" fill="#fe9f94" d="M 30.5,14.5 C 27.3924,20.1142 24.059,25.6142 20.5,31C 22.3893,32.7641 24.3893,34.2641 26.5,35.5C 25.5084,35.3284 24.8417,35.6618 24.5,36.5C 23.5416,36.0472 22.7083,35.3805 22,34.5C 21.8333,34.8333 21.6667,35.1667 21.5,35.5C 23.4216,37.6866 25.0883,40.0199 26.5,42.5C 25.8826,42.6107 25.3826,42.944 25,43.5C 23.6667,41.5 22.3333,39.5 21,37.5C 20.6924,38.3081 20.1924,38.9747 19.5,39.5C 17.4558,37.9317 17.1224,36.0983 18.5,34C 17.9444,32.9889 17.2778,32.1556 16.5,31.5C 15.0484,30.6981 13.3817,30.1981 11.5,30C 15.4592,30.2087 17.1258,28.3754 16.5,24.5C 18.3786,24.6068 18.7119,24.1068 17.5,23C 19.0303,20.648 20.6969,18.4813 22.5,16.5C 25.1123,15.6295 27.779,14.9628 30.5,14.5 Z"/></g>
<g><path style="opacity:1" fill="#ffbb8f" d="M 16.5,24.5 C 17.1258,28.3754 15.4592,30.2087 11.5,30C 13.3817,30.1981 15.0484,30.6981 16.5,31.5C 14.048,33.4495 14.048,35.6162 16.5,38C 15.4829,39.0495 15.3162,40.2161 16,41.5C 18.6815,44.1253 21.0148,47.1253 23,50.5C 23.3333,50.1667 23.6667,49.8333 24,49.5C 28.2135,50.9743 32.0468,52.3076 35.5,53.5C 35.4431,54.609 35.1098,55.609 34.5,56.5C 27.6076,55.5578 20.9409,53.7244 14.5,51C 12.2042,47.5329 9.87089,43.5329 7.5,39C 9.70148,38.2232 9.70148,37.0565 7.5,35.5C 6.34014,31.5411 6.17347,27.5411 7,23.5C 10.3152,18.666 13.4819,13.666 16.5,8.5C 17.8474,7.97169 19.1807,7.80503 20.5,8C 18.5,11 16.5,14 14.5,17C 15.3547,19.4356 16.0213,21.9356 16.5,24.5 Z"/></g>
<g><path style="opacity:1" fill="#fefefe" d="M 34.5,18.5 C 36.955,22.5746 39.2884,26.7412 41.5,31C 38.2945,33.8582 34.7945,36.3582 31,38.5C 29.7292,37.1175 28.2292,36.1175 26.5,35.5C 24.3893,34.2641 22.3893,32.7641 20.5,31C 24.059,25.6142 27.3924,20.1142 30.5,14.5C 30.4346,14.0618 30.6012,13.7284 31,13.5C 32.6692,14.8463 33.8358,16.513 34.5,18.5 Z"/></g>
<g><path style="opacity:1" fill="#ffa77d" d="M 16.5,8.5 C 13.4819,13.666 10.3152,18.666 7,23.5C 6.17347,27.5411 6.34014,31.5411 7.5,35.5C 9.70148,37.0565 9.70148,38.2232 7.5,39C 9.87089,43.5329 12.2042,47.5329 14.5,51C 20.9409,53.7244 27.6076,55.5578 34.5,56.5C 34.5,56.8333 34.5,57.1667 34.5,57.5C 30.9221,58.5887 27.2554,58.7554 23.5,58C 22.1509,57.2276 21.3176,56.0609 21,54.5C 20.2904,55.9733 19.1238,56.6399 17.5,56.5C 11.2807,51.4382 6.78074,45.1048 4,37.5C 2.65646,26.1896 6.15646,16.6896 14.5,9C 15.0944,8.53566 15.7611,8.36899 16.5,8.5 Z"/></g>
<g><path style="opacity:1" fill="#ffaa90" d="M 45.5,11.5 C 47.0495,12.4408 48.7162,13.1075 50.5,13.5C 51.194,17.0825 52.194,20.5825 53.5,24C 53.0559,27.0593 51.7226,29.5593 49.5,31.5C 49.2706,28.6634 49.104,25.6634 49,22.5C 48.6667,21.5 48.3333,20.5 48,19.5C 47.6664,21.8473 47.833,24.1806 48.5,26.5C 46.8333,26.5 45.1667,26.5 43.5,26.5C 42.4161,21.7527 39.4161,19.086 34.5,18.5C 33.8358,16.513 32.6692,14.8463 31,13.5C 30.6012,13.7284 30.4346,14.0618 30.5,14.5C 27.779,14.9628 25.1123,15.6295 22.5,16.5C 22.6596,14.847 23.3263,13.5137 24.5,12.5C 32.5449,10.3475 39.7115,12.0141 46,17.5C 46.1805,15.5116 46.0138,13.5116 45.5,11.5 Z"/></g>
<g><path style="opacity:1" fill="#ffb68c" d="M 28.5,4.5 C 33.9233,4.52365 39.2566,5.19032 44.5,6.5C 44.366,8.29152 44.6993,9.95819 45.5,11.5C 46.0138,13.5116 46.1805,15.5116 46,17.5C 39.7115,12.0141 32.5449,10.3475 24.5,12.5C 26.2723,10.0587 27.6056,7.39205 28.5,4.5 Z"/></g>
<g><path style="opacity:1" fill="#ff9978" d="M 28.5,4.5 C 27.6056,7.39205 26.2723,10.0587 24.5,12.5C 23.3263,13.5137 22.6596,14.847 22.5,16.5C 20.6969,18.4813 19.0303,20.648 17.5,23C 18.7119,24.1068 18.3786,24.6068 16.5,24.5C 16.0213,21.9356 15.3547,19.4356 14.5,17C 16.5,14 18.5,11 20.5,8C 19.1807,7.80503 17.8474,7.97169 16.5,8.5C 17.8684,6.22097 19.7017,5.5543 22,6.5C 24.0871,5.60278 26.2537,4.93611 28.5,4.5 Z"/></g>
</svg>
