<?xml version="1.0" encoding="UTF-8"?>
<!DOCTYPE svg PUBLIC "-//W3C//DTD SVG 1.1//EN" "http://www.w3.org/Graphics/SVG/1.1/DTD/svg11.dtd">
<svg xmlns="http://www.w3.org/2000/svg" version="1.1" width="64px" height="64px" style="shape-rendering:geometricPrecision; text-rendering:geometricPrecision; image-rendering:optimizeQuality; fill-rule:evenodd; clip-rule:evenodd" xmlns:xlink="http://www.w3.org/1999/xlink">
<g><path style="opacity:1" fill="#fce33a" d="M 30.5,8.5 C 31.4794,11.6248 31.8128,14.9581 31.5,18.5C 29.2646,18.7947 27.2646,18.4614 25.5,17.5C 27.1667,14.8333 28.8333,12.1667 30.5,9.5C 30.5,9.16667 30.5,8.83333 30.5,8.5 Z"/></g>
<g><path style="opacity:1" fill="#fb8679" d="M 30.5,8.5 C 31.6226,7.24258 32.2893,7.57591 32.5,9.5C 34.1468,12.4735 36.1468,15.1401 38.5,17.5C 38.5,18.1667 38.5,18.8333 38.5,19.5C 36.1667,19.5 33.8333,19.5 31.5,19.5C 31.5,19.1667 31.5,18.8333 31.5,18.5C 31.8128,14.9581 31.4794,11.6248 30.5,8.5 Z"/></g>
<g><path style="opacity:1" fill="#fdfcf1" d="M 30.5,9.5 C 28.8333,12.1667 27.1667,14.8333 25.5,17.5C 25.1667,17.5 24.8333,17.5 24.5,17.5C 24.3433,16.1266 24.51,14.7932 25,13.5C 26.6508,11.7898 28.4842,10.4564 30.5,9.5 Z"/></g>
<g><path style="opacity:1" fill="#fdfaf8" d="M 32.5,9.5 C 33.5,9.5 34.5,9.5 35.5,9.5C 37.3614,11.7454 38.3614,14.4121 38.5,17.5C 36.1468,15.1401 34.1468,12.4735 32.5,9.5 Z"/></g>
<g><path style="opacity:1" fill="#fcfdf5" d="M 24.5,17.5 C 24.1075,19.2838 23.4408,20.9505 22.5,22.5C 22.1667,22.5 21.8333,22.5 21.5,22.5C 21.5,22.8333 21.5,23.1667 21.5,23.5C 20.8333,24.1667 20.1667,24.8333 19.5,25.5C 18.7606,21.2536 20.4273,18.587 24.5,17.5 Z"/></g>
<g><path style="opacity:1" fill="#fcfcfd" d="M 38.5,17.5 C 40.0109,18.5025 41.6776,19.1692 43.5,19.5C 43.5,21.5 43.5,23.5 43.5,25.5C 42.8333,24.8333 42.1667,24.1667 41.5,23.5C 40.9744,21.7697 39.9744,20.4363 38.5,19.5C 38.5,18.8333 38.5,18.1667 38.5,17.5 Z"/></g>
<g><path style="opacity:1" fill="#c8db61" d="M 24.5,17.5 C 24.8333,17.5 25.1667,17.5 25.5,17.5C 27.2646,18.4614 29.2646,18.7947 31.5,18.5C 31.5,18.8333 31.5,19.1667 31.5,19.5C 31.5,20.5 31.5,21.5 31.5,22.5C 28.5,22.5 25.5,22.5 22.5,22.5C 23.4408,20.9505 24.1075,19.2838 24.5,17.5 Z"/></g>
<g><path style="opacity:1" fill="#c68499" d="M 31.5,19.5 C 33.8333,19.5 36.1667,19.5 38.5,19.5C 39.9744,20.4363 40.9744,21.7697 41.5,23.5C 38.1667,23.5 34.8333,23.5 31.5,23.5C 31.5,23.1667 31.5,22.8333 31.5,22.5C 31.5,21.5 31.5,20.5 31.5,19.5 Z"/></g>
<g><path style="opacity:1" fill="#9fd37a" d="M 21.5,22.5 C 21.8333,22.5 22.1667,22.5 22.5,22.5C 25.5,22.5 28.5,22.5 31.5,22.5C 31.5,22.8333 31.5,23.1667 31.5,23.5C 31.5,23.8333 31.5,24.1667 31.5,24.5C 27.9581,24.8128 24.6248,24.4794 21.5,23.5C 21.5,23.1667 21.5,22.8333 21.5,22.5 Z"/></g>
<g><path style="opacity:1" fill="#9584b4" d="M 31.5,23.5 C 34.8333,23.5 38.1667,23.5 41.5,23.5C 42.1667,24.1667 42.8333,24.8333 43.5,25.5C 43.1667,26.1667 42.8333,26.8333 42.5,27.5C 42.1667,27.5 41.8333,27.5 41.5,27.5C 38.3752,26.5206 35.0419,26.1872 31.5,26.5C 31.5,25.8333 31.5,25.1667 31.5,24.5C 31.5,24.1667 31.5,23.8333 31.5,23.5 Z"/></g>
<g><path style="opacity:1" fill="#79cb8f" d="M 21.5,23.5 C 24.6248,24.4794 27.9581,24.8128 31.5,24.5C 31.5,25.1667 31.5,25.8333 31.5,26.5C 31.5,27.1667 31.5,27.8333 31.5,28.5C 29.059,27.2437 26.7257,27.2437 24.5,28.5C 23.2921,27.7659 21.9587,27.4326 20.5,27.5C 20.1667,26.8333 19.8333,26.1667 19.5,25.5C 20.1667,24.8333 20.8333,24.1667 21.5,23.5 Z"/></g>
<g><path style="opacity:1" fill="#fafcfb" d="M 19.5,25.5 C 19.8333,26.1667 20.1667,26.8333 20.5,27.5C 19.2905,27.9321 18.2905,28.5987 17.5,29.5C 15.9192,31.1417 15.2525,33.1417 15.5,35.5C 15.1667,35.5 14.8333,35.5 14.5,35.5C 14.5,32.8333 14.5,30.1667 14.5,27.5C 15.5,27.5 16.5,27.5 17.5,27.5C 17.1307,25.0065 17.7973,24.3398 19.5,25.5 Z"/></g>
<g><path style="opacity:1" fill="#f8fbfb" d="M 43.5,25.5 C 45.3786,25.3932 45.7119,25.8932 44.5,27C 45.7932,27.49 47.1266,27.6567 48.5,27.5C 48.5,30.1667 48.5,32.8333 48.5,35.5C 48.1667,35.5 47.8333,35.5 47.5,35.5C 47.7475,33.1417 47.0808,31.1417 45.5,29.5C 44.7095,28.5987 43.7095,27.9321 42.5,27.5C 42.8333,26.8333 43.1667,26.1667 43.5,25.5 Z"/></g>
<g><path style="opacity:1" fill="#4eccae" d="M 31.5,28.5 C 31.5,29.8333 31.5,31.1667 31.5,32.5C 28.6689,31.9213 26.3356,30.588 24.5,28.5C 26.7257,27.2437 29.059,27.2437 31.5,28.5 Z"/></g>
<g><path style="opacity:1" fill="#648cd3" d="M 31.5,26.5 C 35.0419,26.1872 38.3752,26.5206 41.5,27.5C 40.5084,27.3284 39.8417,27.6618 39.5,28.5C 37.0616,30.2672 34.395,31.6006 31.5,32.5C 31.5,31.1667 31.5,29.8333 31.5,28.5C 31.5,27.8333 31.5,27.1667 31.5,26.5 Z"/></g>
<g><path style="opacity:1" fill="#57acee" d="M 39.5,28.5 C 39.8417,27.6618 40.5084,27.3284 41.5,27.5C 41.8333,27.5 42.1667,27.5 42.5,27.5C 43.7095,27.9321 44.7095,28.5987 45.5,29.5C 43.0462,30.2271 40.7128,31.2271 38.5,32.5C 37.1667,33.1667 35.8333,33.8333 34.5,34.5C 34.1667,34.5 33.8333,34.5 33.5,34.5C 35.2528,32.7775 37.2528,31.2775 39.5,30C 40.7383,29.31 40.7383,28.81 39.5,28.5 Z"/></g>
<g><path style="opacity:1" fill="#4b8de9" d="M 17.5,29.5 C 19.7221,30.6876 22.0554,31.6876 24.5,32.5C 24.38,33.5862 23.7133,34.2528 22.5,34.5C 20.2351,34.9397 18.0684,35.6064 16,36.5C 15.6012,36.2716 15.4346,35.9382 15.5,35.5C 15.2525,33.1417 15.9192,31.1417 17.5,29.5 Z"/></g>
<g><path style="opacity:1" fill="#4b8de9" d="M 45.5,29.5 C 47.0808,31.1417 47.7475,33.1417 47.5,35.5C 47.44,36.0431 47.1067,36.3764 46.5,36.5C 43.4301,35.7159 40.7634,34.3826 38.5,32.5C 40.7128,31.2271 43.0462,30.2271 45.5,29.5 Z"/></g>
<g><path style="opacity:1" fill="#4e93e9" d="M 24.5,32.5 C 24.8333,32.5 25.1667,32.5 25.5,32.5C 26.3065,33.7281 27.3065,34.7281 28.5,35.5C 23.8143,35.1191 19.4809,36.1191 15.5,38.5C 15.1667,38.5 14.8333,38.5 14.5,38.5C 14.5,37.5 14.5,36.5 14.5,35.5C 14.8333,35.5 15.1667,35.5 15.5,35.5C 15.4346,35.9382 15.6012,36.2716 16,36.5C 18.0684,35.6064 20.2351,34.9397 22.5,34.5C 23.7133,34.2528 24.38,33.5862 24.5,32.5 Z"/></g>
<g><path style="opacity:1" fill="#57b5f1" d="M 20.5,27.5 C 21.9587,27.4326 23.2921,27.7659 24.5,28.5C 26.3356,30.588 28.6689,31.9213 31.5,32.5C 34.395,31.6006 37.0616,30.2672 39.5,28.5C 40.7383,28.81 40.7383,29.31 39.5,30C 37.2528,31.2775 35.2528,32.7775 33.5,34.5C 30.6726,34.4162 28.006,33.7496 25.5,32.5C 25.1667,32.5 24.8333,32.5 24.5,32.5C 22.0554,31.6876 19.7221,30.6876 17.5,29.5C 18.2905,28.5987 19.2905,27.9321 20.5,27.5 Z"/></g>
<g><path style="opacity:1" fill="#4d93ea" d="M 38.5,32.5 C 40.7634,34.3826 43.4301,35.7159 46.5,36.5C 47.1067,36.3764 47.44,36.0431 47.5,35.5C 47.8333,35.5 48.1667,35.5 48.5,35.5C 48.5,36.1667 48.5,36.8333 48.5,37.5C 47.8826,37.6107 47.3826,37.944 47,38.5C 43.1988,36.074 39.0321,35.074 34.5,35.5C 34.5,35.1667 34.5,34.8333 34.5,34.5C 35.8333,33.8333 37.1667,33.1667 38.5,32.5 Z"/></g>
<g><path style="opacity:1" fill="#52a2ed" d="M 25.5,32.5 C 28.006,33.7496 30.6726,34.4162 33.5,34.5C 33.8333,34.5 34.1667,34.5 34.5,34.5C 34.5,34.8333 34.5,35.1667 34.5,35.5C 34.8333,36.1667 35.1667,36.8333 35.5,37.5C 32.8333,37.5 30.1667,37.5 27.5,37.5C 27.9175,36.7784 28.5842,36.2784 29.5,36C 29.2716,35.6012 28.9382,35.4346 28.5,35.5C 27.3065,34.7281 26.3065,33.7281 25.5,32.5 Z"/></g>
<g><path style="opacity:1" fill="#4b9ced" d="M 28.5,35.5 C 28.9382,35.4346 29.2716,35.6012 29.5,36C 28.5842,36.2784 27.9175,36.7784 27.5,37.5C 23.5639,37.4782 19.8973,38.4782 16.5,40.5C 15.7025,40.0431 15.3691,39.3764 15.5,38.5C 19.4809,36.1191 23.8143,35.1191 28.5,35.5 Z"/></g>
<g><path style="opacity:1" fill="#4da7ef" d="M 27.5,37.5 C 30.1667,37.5 32.8333,37.5 35.5,37.5C 38.4951,37.2938 41.1617,37.9605 43.5,39.5C 42.1667,39.5 40.8333,39.5 39.5,39.5C 30.9692,37.5669 22.9692,38.9002 15.5,43.5C 14.962,41.8828 14.6287,40.2161 14.5,38.5C 14.8333,38.5 15.1667,38.5 15.5,38.5C 15.3691,39.3764 15.7025,40.0431 16.5,40.5C 19.8973,38.4782 23.5639,37.4782 27.5,37.5 Z"/></g>
<g><path style="opacity:1" fill="#4c9ceb" d="M 34.5,35.5 C 39.0321,35.074 43.1988,36.074 47,38.5C 47.3826,37.944 47.8826,37.6107 48.5,37.5C 48.7678,39.099 48.4345,40.4324 47.5,41.5C 46.3951,40.3995 45.0618,39.7329 43.5,39.5C 41.1617,37.9605 38.4951,37.2938 35.5,37.5C 35.1667,36.8333 34.8333,36.1667 34.5,35.5 Z"/></g>
<g><path style="opacity:1" fill="#4eb0f2" d="M 39.5,39.5 C 41.0764,40.1429 42.4097,41.1429 43.5,42.5C 37.0578,39.7896 30.7245,39.4563 24.5,41.5C 21.4061,42.2134 18.4061,43.2134 15.5,44.5C 15.5,44.1667 15.5,43.8333 15.5,43.5C 22.9692,38.9002 30.9692,37.5669 39.5,39.5 Z"/></g>
<g><path style="opacity:1" fill="#4dabf1" d="M 39.5,39.5 C 40.8333,39.5 42.1667,39.5 43.5,39.5C 45.0618,39.7329 46.3951,40.3995 47.5,41.5C 47.5,42.5 47.5,43.5 47.5,44.5C 45.847,44.3404 44.5137,43.6737 43.5,42.5C 42.4097,41.1429 41.0764,40.1429 39.5,39.5 Z"/></g>
<g><path style="opacity:1" fill="#50bdf3" d="M 43.5,42.5 C 44.5137,43.6737 45.847,44.3404 47.5,44.5C 47.1667,45.1667 46.8333,45.8333 46.5,46.5C 43.8921,45.4495 40.8921,44.4495 37.5,43.5C 32.5,43.5 27.5,43.5 22.5,43.5C 23.1667,42.8333 23.8333,42.1667 24.5,41.5C 30.7245,39.4563 37.0578,39.7896 43.5,42.5 Z"/></g>
<g><path style="opacity:1" fill="#51b9f2" d="M 24.5,41.5 C 23.8333,42.1667 23.1667,42.8333 22.5,43.5C 20.9699,45.3465 18.9699,46.3465 16.5,46.5C 16.1667,45.8333 15.8333,45.1667 15.5,44.5C 18.4061,43.2134 21.4061,42.2134 24.5,41.5 Z"/></g>
<g><path style="opacity:1" fill="#52caf6" d="M 22.5,43.5 C 27.5,43.5 32.5,43.5 37.5,43.5C 38.1667,44.1667 38.8333,44.8333 39.5,45.5C 36.6811,45.1312 33.8477,44.7978 31,44.5C 29.0145,44.5687 27.5145,45.2353 26.5,46.5C 23.6937,46.8222 21.1937,47.8222 19,49.5C 18.6174,48.944 18.1174,48.6107 17.5,48.5C 17.1667,47.8333 16.8333,47.1667 16.5,46.5C 18.9699,46.3465 20.9699,45.3465 22.5,43.5 Z"/></g>
<g><path style="opacity:1" fill="#52c5f5" d="M 37.5,43.5 C 40.8921,44.4495 43.8921,45.4495 46.5,46.5C 46.1667,47.1667 45.8333,47.8333 45.5,48.5C 44.8826,48.6107 44.3826,48.944 44,49.5C 43.1841,48.1772 42.0174,47.5106 40.5,47.5C 40.1667,46.8333 39.8333,46.1667 39.5,45.5C 38.8333,44.8333 38.1667,44.1667 37.5,43.5 Z"/></g>
<g><path style="opacity:1" fill="#fbfdfc" d="M 14.5,35.5 C 14.5,36.5 14.5,37.5 14.5,38.5C 14.6287,40.2161 14.962,41.8828 15.5,43.5C 15.5,43.8333 15.5,44.1667 15.5,44.5C 15.8333,45.1667 16.1667,45.8333 16.5,46.5C 16.8333,47.1667 17.1667,47.8333 17.5,48.5C 16.5,48.5 15.5,48.5 14.5,48.5C 14.4336,45.0385 13.7669,41.7051 12.5,38.5C 12.6399,36.9704 13.3065,35.9704 14.5,35.5 Z"/></g>
<g><path style="opacity:1" fill="#f9fdfd" d="M 48.5,35.5 C 49.6935,35.9704 50.3601,36.9704 50.5,38.5C 49.2331,41.7051 48.5664,45.0385 48.5,48.5C 47.5,48.5 46.5,48.5 45.5,48.5C 45.8333,47.8333 46.1667,47.1667 46.5,46.5C 46.8333,45.8333 47.1667,45.1667 47.5,44.5C 47.5,43.5 47.5,42.5 47.5,41.5C 48.4345,40.4324 48.7678,39.099 48.5,37.5C 48.5,36.8333 48.5,36.1667 48.5,35.5 Z"/></g>
<g><path style="opacity:1" fill="#52d3f8" d="M 39.5,45.5 C 39.8333,46.1667 40.1667,46.8333 40.5,47.5C 35.7534,46.4117 31.0868,46.0784 26.5,46.5C 27.5145,45.2353 29.0145,44.5687 31,44.5C 33.8477,44.7978 36.6811,45.1312 39.5,45.5 Z"/></g>
<g><path style="opacity:1" fill="#6cdcf9" d="M 40.5,47.5 C 42.0174,47.5106 43.1841,48.1772 44,49.5C 44.3826,48.944 44.8826,48.6107 45.5,48.5C 44.695,50.2128 43.695,51.8794 42.5,53.5C 41.8165,53.1373 41.1499,52.8039 40.5,52.5C 40.1667,52.5 39.8333,52.5 39.5,52.5C 37.9358,48.5451 34.9358,46.8785 30.5,47.5C 26.491,46.99 24.491,48.6567 24.5,52.5C 24.5,52.8333 24.5,53.1667 24.5,53.5C 22.6675,52.7515 21.0009,51.7515 19.5,50.5C 18.1667,50.5 17.5,49.8333 17.5,48.5C 18.1174,48.6107 18.6174,48.944 19,49.5C 21.1937,47.8222 23.6937,46.8222 26.5,46.5C 31.0868,46.0784 35.7534,46.4117 40.5,47.5 Z"/></g>
<g><path style="opacity:1" fill="#54e5fc" d="M 39.5,52.5 C 39.5,53.1667 39.1667,53.5 38.5,53.5C 34.2617,48.8871 29.595,48.5538 24.5,52.5C 24.491,48.6567 26.491,46.99 30.5,47.5C 34.9358,46.8785 37.9358,48.5451 39.5,52.5 Z"/></g>
<g><path style="opacity:1" fill="#5af0fb" d="M 38.5,53.5 C 37.0048,53.9887 35.6715,54.6554 34.5,55.5C 32.5,55.5 30.5,55.5 28.5,55.5C 27.3285,54.6554 25.9952,53.9887 24.5,53.5C 24.5,53.1667 24.5,52.8333 24.5,52.5C 29.595,48.5538 34.2617,48.8871 38.5,53.5 Z"/></g>
<g><path style="opacity:1" fill="#f5fefe" d="M 39.5,52.5 C 39.8333,52.5 40.1667,52.5 40.5,52.5C 40.5,53.5 40.5,54.5 40.5,55.5C 38.5,55.5 36.5,55.5 34.5,55.5C 35.6715,54.6554 37.0048,53.9887 38.5,53.5C 39.1667,53.5 39.5,53.1667 39.5,52.5 Z"/></g>
<g><path style="opacity:1" fill="#f7fefd" d="M 19.5,50.5 C 21.0009,51.7515 22.6675,52.7515 24.5,53.5C 25.9952,53.9887 27.3285,54.6554 28.5,55.5C 26.4588,55.1459 24.6255,55.1459 23,55.5C 22.2904,54.0267 21.1238,53.3601 19.5,53.5C 19.5,52.5 19.5,51.5 19.5,50.5 Z"/></g>
</svg>
